<mxfile host="app.diagrams.net" modified="2023-05-15T16:22:09.900Z" agent="Mozilla/5.0 (Windows NT 10.0; Win64; x64) AppleWebKit/537.36 (KHTML, like Gecko) Chrome/112.0.0.0 Safari/537.36 OPR/98.0.0.0" etag="vWNP8oxVJ5R5KMSN3g5h" version="21.3.0">
  <diagram name="Page-1" id="c9c0H1F89mc2CO9ueEr0">
    <mxGraphModel dx="2033" dy="1126" grid="1" gridSize="10" guides="1" tooltips="1" connect="1" arrows="1" fold="1" page="1" pageScale="1" pageWidth="1654" pageHeight="1169" math="0" shadow="0">
      <root>
        <mxCell id="0" />
        <mxCell id="1" parent="0" />
        <mxCell id="ic1XsGLHBiBLJPpKoA1E-210" value="" style="shape=link;html=1;rounded=0;fontSize=14;endArrow=none;endFill=0;entryX=1;entryY=0.5;entryDx=0;entryDy=0;strokeColor=#B09500;exitX=0;exitY=0.5;exitDx=0;exitDy=0;" parent="1" source="uJXrZsIrfG91avE3QK3n-5" target="ic1XsGLHBiBLJPpKoA1E-206" edge="1">
          <mxGeometry relative="1" as="geometry">
            <mxPoint x="677" y="718" as="sourcePoint" />
            <mxPoint x="769" y="660" as="targetPoint" />
          </mxGeometry>
        </mxCell>
        <mxCell id="ic1XsGLHBiBLJPpKoA1E-211" value="1" style="resizable=0;html=1;align=right;verticalAlign=bottom;labelBackgroundColor=default;fontSize=20;" parent="ic1XsGLHBiBLJPpKoA1E-210" connectable="0" vertex="1">
          <mxGeometry x="1" relative="1" as="geometry">
            <mxPoint x="119" y="16" as="offset" />
          </mxGeometry>
        </mxCell>
        <mxCell id="ic1XsGLHBiBLJPpKoA1E-208" value="" style="endArrow=none;html=1;rounded=0;fontSize=14;entryX=1;entryY=0.5;entryDx=0;entryDy=0;strokeColor=#B09500;" parent="1" target="uJXrZsIrfG91avE3QK3n-5" edge="1">
          <mxGeometry relative="1" as="geometry">
            <mxPoint x="790" y="718" as="sourcePoint" />
            <mxPoint x="572.04" y="764" as="targetPoint" />
          </mxGeometry>
        </mxCell>
        <mxCell id="ic1XsGLHBiBLJPpKoA1E-209" value="N" style="resizable=0;html=1;align=right;verticalAlign=bottom;labelBackgroundColor=default;fontSize=20;" parent="ic1XsGLHBiBLJPpKoA1E-208" connectable="0" vertex="1">
          <mxGeometry x="1" relative="1" as="geometry">
            <mxPoint x="-64" y="17" as="offset" />
          </mxGeometry>
        </mxCell>
        <mxCell id="59hTg4i9WxtJLP-nNg0J-20" style="edgeStyle=orthogonalEdgeStyle;rounded=0;orthogonalLoop=1;jettySize=auto;html=1;exitX=1;exitY=0.5;exitDx=0;exitDy=0;entryX=0;entryY=0.5;entryDx=0;entryDy=0;endArrow=none;endFill=0;" parent="1" source="7o3vYwH5cnDtXFb4_Unw-1" target="7o3vYwH5cnDtXFb4_Unw-8" edge="1">
          <mxGeometry relative="1" as="geometry" />
        </mxCell>
        <mxCell id="ic1XsGLHBiBLJPpKoA1E-205" style="rounded=0;orthogonalLoop=1;jettySize=auto;html=1;exitX=0;exitY=1;exitDx=0;exitDy=0;entryX=1;entryY=0;entryDx=0;entryDy=0;fontSize=14;endArrow=none;endFill=0;" parent="1" source="7o3vYwH5cnDtXFb4_Unw-1" target="NMomimD1FpmeGMdiOsrc-168" edge="1">
          <mxGeometry relative="1" as="geometry" />
        </mxCell>
        <mxCell id="puiFlrzKT8CEFiVwOP3T-6" style="edgeStyle=orthogonalEdgeStyle;rounded=0;orthogonalLoop=1;jettySize=auto;html=1;exitX=0.75;exitY=1;exitDx=0;exitDy=0;entryX=0.5;entryY=0;entryDx=0;entryDy=0;fontSize=12;endArrow=none;endFill=0;" parent="1" source="7o3vYwH5cnDtXFb4_Unw-1" target="NMomimD1FpmeGMdiOsrc-160" edge="1">
          <mxGeometry relative="1" as="geometry">
            <Array as="points">
              <mxPoint x="880" y="870" />
              <mxPoint x="1005" y="870" />
            </Array>
          </mxGeometry>
        </mxCell>
        <mxCell id="7o3vYwH5cnDtXFb4_Unw-1" value="&lt;b&gt;&lt;font style=&quot;font-size: 16px;&quot;&gt;FilmCrew&lt;/font&gt;&lt;/b&gt;" style="whiteSpace=wrap;html=1;align=center;rounded=0;" parent="1" vertex="1">
          <mxGeometry x="790.0000000000001" y="697" width="120" height="40" as="geometry" />
        </mxCell>
        <mxCell id="NMomimD1FpmeGMdiOsrc-99" style="rounded=0;orthogonalLoop=1;jettySize=auto;html=1;exitX=1;exitY=0.5;exitDx=0;exitDy=0;entryX=0;entryY=0.5;entryDx=0;entryDy=0;fontSize=22;endArrow=none;endFill=0;" parent="1" source="7o3vYwH5cnDtXFb4_Unw-8" target="8aqyun7AeXd8vVvR7GN6-64" edge="1">
          <mxGeometry relative="1" as="geometry" />
        </mxCell>
        <mxCell id="7o3vYwH5cnDtXFb4_Unw-8" value="FullName" style="ellipse;whiteSpace=wrap;html=1;align=center;rounded=0;" parent="1" vertex="1">
          <mxGeometry x="955.0000000000001" y="697" width="100" height="40" as="geometry" />
        </mxCell>
        <mxCell id="ic1XsGLHBiBLJPpKoA1E-167" style="edgeStyle=orthogonalEdgeStyle;rounded=0;orthogonalLoop=1;jettySize=auto;html=1;exitX=1;exitY=0.25;exitDx=0;exitDy=0;entryX=0.5;entryY=1;entryDx=0;entryDy=0;fontSize=21;endArrow=none;endFill=0;" parent="1" source="7o3vYwH5cnDtXFb4_Unw-17" target="ic1XsGLHBiBLJPpKoA1E-147" edge="1">
          <mxGeometry relative="1" as="geometry">
            <Array as="points">
              <mxPoint x="1001" y="280" />
            </Array>
          </mxGeometry>
        </mxCell>
        <mxCell id="ic1XsGLHBiBLJPpKoA1E-170" style="edgeStyle=orthogonalEdgeStyle;rounded=0;orthogonalLoop=1;jettySize=auto;html=1;exitX=0;exitY=0.25;exitDx=0;exitDy=0;entryX=0.5;entryY=1;entryDx=0;entryDy=0;fontSize=21;endArrow=none;endFill=0;" parent="1" source="7o3vYwH5cnDtXFb4_Unw-17" target="ic1XsGLHBiBLJPpKoA1E-151" edge="1">
          <mxGeometry relative="1" as="geometry">
            <Array as="points">
              <mxPoint x="696" y="280" />
            </Array>
          </mxGeometry>
        </mxCell>
        <mxCell id="ic1XsGLHBiBLJPpKoA1E-176" style="edgeStyle=orthogonalEdgeStyle;rounded=0;orthogonalLoop=1;jettySize=auto;html=1;exitX=0;exitY=0.25;exitDx=0;exitDy=0;entryX=0.5;entryY=1;entryDx=0;entryDy=0;fontSize=12;endArrow=none;endFill=0;dashed=1;" parent="1" source="7o3vYwH5cnDtXFb4_Unw-17" target="ic1XsGLHBiBLJPpKoA1E-173" edge="1">
          <mxGeometry relative="1" as="geometry">
            <Array as="points">
              <mxPoint x="623" y="280" />
            </Array>
          </mxGeometry>
        </mxCell>
        <mxCell id="sxgCxHeBCdCzxEI4LQtO-14" style="edgeStyle=none;rounded=0;orthogonalLoop=1;jettySize=auto;html=1;exitX=0;exitY=0;exitDx=0;exitDy=0;entryX=0.5;entryY=1;entryDx=0;entryDy=0;fontSize=12;fontColor=#000000;endArrow=none;endFill=0;" parent="1" source="7o3vYwH5cnDtXFb4_Unw-17" target="VnVdwz_nQ0UYNyJ9cBvI-29" edge="1">
          <mxGeometry relative="1" as="geometry" />
        </mxCell>
        <mxCell id="7o3vYwH5cnDtXFb4_Unw-17" value="Review" style="shape=associativeEntity;whiteSpace=wrap;html=1;align=center;fontFamily=Helvetica;fontSize=12;fontColor=default;strokeColor=default;fillColor=default;" parent="1" vertex="1">
          <mxGeometry x="790" y="270" width="120" height="40" as="geometry" />
        </mxCell>
        <mxCell id="NMomimD1FpmeGMdiOsrc-2" style="edgeStyle=orthogonalEdgeStyle;rounded=0;orthogonalLoop=1;jettySize=auto;html=1;exitX=1;exitY=1;exitDx=0;exitDy=0;endArrow=none;endFill=0;entryX=0;entryY=0.5;entryDx=0;entryDy=0;" parent="1" source="7o3vYwH5cnDtXFb4_Unw-19" target="8aqyun7AeXd8vVvR7GN6-12" edge="1">
          <mxGeometry relative="1" as="geometry">
            <mxPoint x="1466" y="360" as="sourcePoint" />
            <mxPoint x="1490" y="830" as="targetPoint" />
            <Array as="points">
              <mxPoint x="1483" y="360" />
              <mxPoint x="1483" y="819" />
            </Array>
          </mxGeometry>
        </mxCell>
        <mxCell id="ic1XsGLHBiBLJPpKoA1E-92" style="edgeStyle=orthogonalEdgeStyle;rounded=0;orthogonalLoop=1;jettySize=auto;html=1;exitX=0.25;exitY=1;exitDx=0;exitDy=0;entryX=1;entryY=0.5;entryDx=0;entryDy=0;fontSize=21;endArrow=none;endFill=0;" parent="1" source="7o3vYwH5cnDtXFb4_Unw-19" target="8aqyun7AeXd8vVvR7GN6-5" edge="1">
          <mxGeometry relative="1" as="geometry">
            <mxPoint x="1373" y="438" as="sourcePoint" />
            <Array as="points">
              <mxPoint x="1373" y="498" />
              <mxPoint x="1360" y="498" />
            </Array>
          </mxGeometry>
        </mxCell>
        <mxCell id="sxgCxHeBCdCzxEI4LQtO-34" style="edgeStyle=orthogonalEdgeStyle;rounded=0;orthogonalLoop=1;jettySize=auto;html=1;exitX=1;exitY=0.5;exitDx=0;exitDy=0;fontSize=16;fontColor=#000000;endArrow=none;endFill=0;entryX=0;entryY=0.5;entryDx=0;entryDy=0;" parent="1" source="7o3vYwH5cnDtXFb4_Unw-19" target="sxgCxHeBCdCzxEI4LQtO-31" edge="1">
          <mxGeometry relative="1" as="geometry">
            <mxPoint x="1510" y="339.68965517241384" as="targetPoint" />
            <Array as="points">
              <mxPoint x="1510" y="340" />
              <mxPoint x="1510" y="307" />
            </Array>
          </mxGeometry>
        </mxCell>
        <mxCell id="7o3vYwH5cnDtXFb4_Unw-19" value="Movie" style="whiteSpace=wrap;html=1;align=center;rounded=0;" parent="1" vertex="1">
          <mxGeometry x="1343" y="320" width="120" height="40" as="geometry" />
        </mxCell>
        <mxCell id="NMomimD1FpmeGMdiOsrc-6" style="edgeStyle=orthogonalEdgeStyle;rounded=0;orthogonalLoop=1;jettySize=auto;html=1;endArrow=none;endFill=0;entryX=1;entryY=1;entryDx=0;entryDy=0;exitX=0;exitY=0.5;exitDx=0;exitDy=0;" parent="1" source="7o3vYwH5cnDtXFb4_Unw-41" target="7o3vYwH5cnDtXFb4_Unw-19" edge="1">
          <mxGeometry relative="1" as="geometry">
            <mxPoint x="1450" y="580" as="sourcePoint" />
            <mxPoint x="1466" y="360" as="targetPoint" />
            <Array as="points">
              <mxPoint x="1503" y="580" />
              <mxPoint x="1483" y="580" />
              <mxPoint x="1483" y="360" />
            </Array>
          </mxGeometry>
        </mxCell>
        <mxCell id="7o3vYwH5cnDtXFb4_Unw-41" value="Title" style="ellipse;whiteSpace=wrap;html=1;align=center;rounded=0;" parent="1" vertex="1">
          <mxGeometry x="1503" y="560" width="100" height="40" as="geometry" />
        </mxCell>
        <mxCell id="NMomimD1FpmeGMdiOsrc-4" style="edgeStyle=orthogonalEdgeStyle;rounded=0;orthogonalLoop=1;jettySize=auto;html=1;exitX=0;exitY=0.5;exitDx=0;exitDy=0;entryX=1;entryY=1;entryDx=0;entryDy=0;endArrow=none;endFill=0;" parent="1" source="7o3vYwH5cnDtXFb4_Unw-42" edge="1">
          <mxGeometry relative="1" as="geometry">
            <mxPoint x="1505.9999999999895" y="739" as="sourcePoint" />
            <mxPoint x="1466" y="360" as="targetPoint" />
            <Array as="points">
              <mxPoint x="1483" y="739" />
              <mxPoint x="1483" y="360" />
            </Array>
          </mxGeometry>
        </mxCell>
        <mxCell id="7o3vYwH5cnDtXFb4_Unw-42" value="ReleaseDate" style="ellipse;whiteSpace=wrap;html=1;align=center;rounded=0;" parent="1" vertex="1">
          <mxGeometry x="1503" y="719" width="100" height="40" as="geometry" />
        </mxCell>
        <mxCell id="NMomimD1FpmeGMdiOsrc-5" style="edgeStyle=orthogonalEdgeStyle;rounded=0;orthogonalLoop=1;jettySize=auto;html=1;exitX=0;exitY=0.5;exitDx=0;exitDy=0;endArrow=none;endFill=0;entryX=1;entryY=1;entryDx=0;entryDy=0;" parent="1" source="7o3vYwH5cnDtXFb4_Unw-43" edge="1">
          <mxGeometry relative="1" as="geometry">
            <mxPoint x="1505.9999999999895" y="659" as="sourcePoint" />
            <mxPoint x="1466" y="360" as="targetPoint" />
            <Array as="points">
              <mxPoint x="1483" y="659" />
              <mxPoint x="1483" y="360" />
            </Array>
          </mxGeometry>
        </mxCell>
        <mxCell id="7o3vYwH5cnDtXFb4_Unw-43" value="Duration" style="ellipse;whiteSpace=wrap;html=1;align=center;rounded=0;" parent="1" vertex="1">
          <mxGeometry x="1503" y="639" width="100" height="40" as="geometry" />
        </mxCell>
        <mxCell id="ic1XsGLHBiBLJPpKoA1E-86" style="edgeStyle=orthogonalEdgeStyle;rounded=0;orthogonalLoop=1;jettySize=auto;html=1;exitX=0.75;exitY=1;exitDx=0;exitDy=0;entryX=0;entryY=0.5;entryDx=0;entryDy=0;fontSize=21;endArrow=none;endFill=0;" parent="1" source="7o3vYwH5cnDtXFb4_Unw-54" target="7o3vYwH5cnDtXFb4_Unw-65" edge="1">
          <mxGeometry relative="1" as="geometry">
            <Array as="points">
              <mxPoint x="270" y="500" />
            </Array>
          </mxGeometry>
        </mxCell>
        <mxCell id="sxgCxHeBCdCzxEI4LQtO-54" style="edgeStyle=orthogonalEdgeStyle;rounded=0;orthogonalLoop=1;jettySize=auto;html=1;exitX=0;exitY=0.5;exitDx=0;exitDy=0;entryX=1;entryY=0.5;entryDx=0;entryDy=0;fontSize=16;fontColor=#000000;endArrow=none;endFill=0;" parent="1" source="7o3vYwH5cnDtXFb4_Unw-54" target="sxgCxHeBCdCzxEI4LQtO-37" edge="1">
          <mxGeometry relative="1" as="geometry">
            <Array as="points">
              <mxPoint x="130" y="340" />
              <mxPoint x="130" y="307" />
            </Array>
          </mxGeometry>
        </mxCell>
        <mxCell id="7o3vYwH5cnDtXFb4_Unw-54" value="Series" style="whiteSpace=wrap;html=1;align=center;rounded=0;" parent="1" vertex="1">
          <mxGeometry x="180" y="320" width="120" height="40" as="geometry" />
        </mxCell>
        <mxCell id="sxgCxHeBCdCzxEI4LQtO-41" style="edgeStyle=orthogonalEdgeStyle;rounded=0;orthogonalLoop=1;jettySize=auto;html=1;exitX=1;exitY=0.5;exitDx=0;exitDy=0;entryX=0;entryY=0;entryDx=0;entryDy=0;dashed=1;fontSize=16;fontColor=#000000;endArrow=none;endFill=0;" parent="1" source="7o3vYwH5cnDtXFb4_Unw-59" target="7o3vYwH5cnDtXFb4_Unw-54" edge="1">
          <mxGeometry relative="1" as="geometry">
            <Array as="points">
              <mxPoint x="160" y="100" />
              <mxPoint x="160" y="320" />
            </Array>
          </mxGeometry>
        </mxCell>
        <mxCell id="7o3vYwH5cnDtXFb4_Unw-59" value="Popularity" style="ellipse;whiteSpace=wrap;html=1;align=center;dashed=1;rounded=0;" parent="1" vertex="1">
          <mxGeometry x="40" y="80" width="100" height="40" as="geometry" />
        </mxCell>
        <mxCell id="ic1XsGLHBiBLJPpKoA1E-88" style="edgeStyle=orthogonalEdgeStyle;rounded=0;orthogonalLoop=1;jettySize=auto;html=1;exitX=0;exitY=0.5;exitDx=0;exitDy=0;entryX=0.75;entryY=1;entryDx=0;entryDy=0;fontSize=21;endArrow=none;endFill=0;" parent="1" source="7o3vYwH5cnDtXFb4_Unw-61" target="7o3vYwH5cnDtXFb4_Unw-54" edge="1">
          <mxGeometry relative="1" as="geometry">
            <Array as="points">
              <mxPoint x="270" y="660" />
            </Array>
          </mxGeometry>
        </mxCell>
        <mxCell id="7o3vYwH5cnDtXFb4_Unw-61" value="Duration" style="ellipse;whiteSpace=wrap;html=1;align=center;rounded=0;" parent="1" vertex="1">
          <mxGeometry x="280" y="640" width="100" height="40" as="geometry" />
        </mxCell>
        <mxCell id="sxgCxHeBCdCzxEI4LQtO-52" style="edgeStyle=orthogonalEdgeStyle;rounded=0;orthogonalLoop=1;jettySize=auto;html=1;exitX=0;exitY=0.5;exitDx=0;exitDy=0;fontSize=16;fontColor=#000000;endArrow=none;endFill=0;dashed=1;entryX=0.75;entryY=1;entryDx=0;entryDy=0;" parent="1" source="7o3vYwH5cnDtXFb4_Unw-62" target="7o3vYwH5cnDtXFb4_Unw-54" edge="1">
          <mxGeometry relative="1" as="geometry">
            <mxPoint x="260" y="980" as="targetPoint" />
            <Array as="points">
              <mxPoint x="270" y="1060" />
            </Array>
          </mxGeometry>
        </mxCell>
        <mxCell id="7o3vYwH5cnDtXFb4_Unw-62" value="R" style="ellipse;whiteSpace=wrap;html=1;align=center;rounded=0;dashed=1;" parent="1" vertex="1">
          <mxGeometry x="280" y="1040" width="100" height="40" as="geometry" />
        </mxCell>
        <mxCell id="7o3vYwH5cnDtXFb4_Unw-63" style="edgeStyle=orthogonalEdgeStyle;rounded=0;orthogonalLoop=1;jettySize=auto;html=1;exitX=0.5;exitY=1;exitDx=0;exitDy=0;entryX=0.25;entryY=1;entryDx=0;entryDy=0;endArrow=none;endFill=0;" parent="1" source="7o3vYwH5cnDtXFb4_Unw-54" target="7o3vYwH5cnDtXFb4_Unw-54" edge="1">
          <mxGeometry relative="1" as="geometry" />
        </mxCell>
        <mxCell id="7o3vYwH5cnDtXFb4_Unw-65" value="Genre" style="ellipse;whiteSpace=wrap;html=1;align=center;rounded=0;" parent="1" vertex="1">
          <mxGeometry x="280" y="480" width="100" height="40" as="geometry" />
        </mxCell>
        <mxCell id="sxgCxHeBCdCzxEI4LQtO-48" style="edgeStyle=orthogonalEdgeStyle;rounded=0;orthogonalLoop=1;jettySize=auto;html=1;exitX=1;exitY=0.5;exitDx=0;exitDy=0;entryX=0;entryY=1;entryDx=0;entryDy=0;fontSize=16;fontColor=#000000;endArrow=none;endFill=0;" parent="1" source="7o3vYwH5cnDtXFb4_Unw-66" target="7o3vYwH5cnDtXFb4_Unw-54" edge="1">
          <mxGeometry relative="1" as="geometry">
            <Array as="points">
              <mxPoint x="160" y="579" />
              <mxPoint x="160" y="360" />
            </Array>
          </mxGeometry>
        </mxCell>
        <mxCell id="7o3vYwH5cnDtXFb4_Unw-66" value="Title" style="ellipse;whiteSpace=wrap;html=1;align=center;rounded=0;" parent="1" vertex="1">
          <mxGeometry x="40" y="559" width="100" height="40" as="geometry" />
        </mxCell>
        <mxCell id="NMomimD1FpmeGMdiOsrc-7" style="edgeStyle=orthogonalEdgeStyle;rounded=0;orthogonalLoop=1;jettySize=auto;html=1;endArrow=none;endFill=0;entryX=1;entryY=1;entryDx=0;entryDy=0;exitX=0;exitY=0.5;exitDx=0;exitDy=0;" parent="1" source="8aqyun7AeXd8vVvR7GN6-1" edge="1">
          <mxGeometry relative="1" as="geometry">
            <mxPoint x="1490" y="510" as="sourcePoint" />
            <mxPoint x="1466" y="360" as="targetPoint" />
            <Array as="points">
              <mxPoint x="1483" y="499" />
              <mxPoint x="1483" y="360" />
            </Array>
          </mxGeometry>
        </mxCell>
        <mxCell id="8aqyun7AeXd8vVvR7GN6-1" value="Location" style="ellipse;whiteSpace=wrap;html=1;align=center;rounded=0;" parent="1" vertex="1">
          <mxGeometry x="1503" y="479" width="100" height="40" as="geometry" />
        </mxCell>
        <mxCell id="8aqyun7AeXd8vVvR7GN6-5" value="R" style="ellipse;whiteSpace=wrap;html=1;align=center;rounded=0;dashed=1;" parent="1" vertex="1">
          <mxGeometry x="1260" y="479" width="100" height="40" as="geometry" />
        </mxCell>
        <mxCell id="8aqyun7AeXd8vVvR7GN6-9" style="edgeStyle=orthogonalEdgeStyle;rounded=0;orthogonalLoop=1;jettySize=auto;html=1;exitX=0.5;exitY=1;exitDx=0;exitDy=0;" parent="1" edge="1">
          <mxGeometry relative="1" as="geometry">
            <mxPoint x="1553" y="439" as="sourcePoint" />
            <mxPoint x="1553" y="439" as="targetPoint" />
          </mxGeometry>
        </mxCell>
        <mxCell id="ic1XsGLHBiBLJPpKoA1E-96" style="edgeStyle=orthogonalEdgeStyle;rounded=0;orthogonalLoop=1;jettySize=auto;html=1;exitX=1;exitY=0.5;exitDx=0;exitDy=0;entryX=0.25;entryY=1;entryDx=0;entryDy=0;fontSize=21;endArrow=none;endFill=0;" parent="1" source="8aqyun7AeXd8vVvR7GN6-11" target="7o3vYwH5cnDtXFb4_Unw-19" edge="1">
          <mxGeometry relative="1" as="geometry">
            <mxPoint x="1373" y="438" as="targetPoint" />
            <Array as="points">
              <mxPoint x="1373" y="818" />
            </Array>
          </mxGeometry>
        </mxCell>
        <mxCell id="8aqyun7AeXd8vVvR7GN6-11" value="ReleaseYear" style="ellipse;whiteSpace=wrap;html=1;align=center;rounded=0;" parent="1" vertex="1">
          <mxGeometry x="1260" y="799" width="100" height="40" as="geometry" />
        </mxCell>
        <mxCell id="8aqyun7AeXd8vVvR7GN6-12" value="Description" style="ellipse;whiteSpace=wrap;html=1;align=center;rounded=0;" parent="1" vertex="1">
          <mxGeometry x="1503" y="799" width="100" height="40" as="geometry" />
        </mxCell>
        <mxCell id="ic1XsGLHBiBLJPpKoA1E-94" style="edgeStyle=orthogonalEdgeStyle;rounded=0;orthogonalLoop=1;jettySize=auto;html=1;exitX=1;exitY=0.5;exitDx=0;exitDy=0;entryX=0.25;entryY=1;entryDx=0;entryDy=0;fontSize=21;endArrow=none;endFill=0;" parent="1" source="8aqyun7AeXd8vVvR7GN6-14" target="7o3vYwH5cnDtXFb4_Unw-19" edge="1">
          <mxGeometry relative="1" as="geometry">
            <mxPoint x="1373" y="438" as="targetPoint" />
            <Array as="points">
              <mxPoint x="1373" y="658" />
            </Array>
          </mxGeometry>
        </mxCell>
        <mxCell id="8aqyun7AeXd8vVvR7GN6-14" value="TrailerURL" style="ellipse;whiteSpace=wrap;html=1;align=center;rounded=0;" parent="1" vertex="1">
          <mxGeometry x="1260" y="638" width="100" height="40" as="geometry" />
        </mxCell>
        <mxCell id="ic1XsGLHBiBLJPpKoA1E-93" style="edgeStyle=orthogonalEdgeStyle;rounded=0;orthogonalLoop=1;jettySize=auto;html=1;exitX=1;exitY=0.5;exitDx=0;exitDy=0;entryX=0.25;entryY=1;entryDx=0;entryDy=0;fontSize=21;endArrow=none;endFill=0;" parent="1" source="8aqyun7AeXd8vVvR7GN6-16" target="7o3vYwH5cnDtXFb4_Unw-19" edge="1">
          <mxGeometry relative="1" as="geometry">
            <mxPoint x="1373" y="438" as="targetPoint" />
            <Array as="points">
              <mxPoint x="1373" y="578" />
            </Array>
          </mxGeometry>
        </mxCell>
        <mxCell id="8aqyun7AeXd8vVvR7GN6-16" value="CoverURL" style="ellipse;whiteSpace=wrap;html=1;align=center;rounded=0;" parent="1" vertex="1">
          <mxGeometry x="1260" y="558" width="100" height="40" as="geometry" />
        </mxCell>
        <mxCell id="ic1XsGLHBiBLJPpKoA1E-95" style="edgeStyle=orthogonalEdgeStyle;rounded=0;orthogonalLoop=1;jettySize=auto;html=1;exitX=1;exitY=0.5;exitDx=0;exitDy=0;entryX=0.25;entryY=1;entryDx=0;entryDy=0;fontSize=21;endArrow=none;endFill=0;dashed=1;" parent="1" source="8aqyun7AeXd8vVvR7GN6-30" target="7o3vYwH5cnDtXFb4_Unw-19" edge="1">
          <mxGeometry relative="1" as="geometry">
            <mxPoint x="1373" y="438" as="targetPoint" />
            <Array as="points">
              <mxPoint x="1373" y="738" />
            </Array>
          </mxGeometry>
        </mxCell>
        <mxCell id="8aqyun7AeXd8vVvR7GN6-30" value="ImagesNum" style="ellipse;whiteSpace=wrap;html=1;align=center;rounded=0;dashed=1;" parent="1" vertex="1">
          <mxGeometry x="1260" y="719" width="100" height="40" as="geometry" />
        </mxCell>
        <mxCell id="NMomimD1FpmeGMdiOsrc-117" style="edgeStyle=orthogonalEdgeStyle;rounded=0;orthogonalLoop=1;jettySize=auto;html=1;exitX=0;exitY=0.5;exitDx=0;exitDy=0;fontSize=14;endArrow=none;endFill=0;dashed=1;entryX=1;entryY=1;entryDx=0;entryDy=0;" parent="1" source="8aqyun7AeXd8vVvR7GN6-31" edge="1">
          <mxGeometry relative="1" as="geometry">
            <mxPoint x="1505.9999999999895" y="899" as="sourcePoint" />
            <mxPoint x="1466" y="360" as="targetPoint" />
            <Array as="points">
              <mxPoint x="1483" y="899" />
              <mxPoint x="1483" y="360" />
            </Array>
          </mxGeometry>
        </mxCell>
        <mxCell id="8aqyun7AeXd8vVvR7GN6-31" value="VideosNum" style="ellipse;whiteSpace=wrap;html=1;align=center;rounded=0;dashed=1;" parent="1" vertex="1">
          <mxGeometry x="1503" y="879" width="100" height="40" as="geometry" />
        </mxCell>
        <mxCell id="sxgCxHeBCdCzxEI4LQtO-51" style="edgeStyle=orthogonalEdgeStyle;rounded=0;orthogonalLoop=1;jettySize=auto;html=1;exitX=1;exitY=0.5;exitDx=0;exitDy=0;entryX=0;entryY=1;entryDx=0;entryDy=0;fontSize=16;fontColor=#000000;endArrow=none;endFill=0;" parent="1" source="8aqyun7AeXd8vVvR7GN6-40" target="7o3vYwH5cnDtXFb4_Unw-54" edge="1">
          <mxGeometry relative="1" as="geometry">
            <Array as="points">
              <mxPoint x="160" y="899" />
              <mxPoint x="160" y="360" />
            </Array>
          </mxGeometry>
        </mxCell>
        <mxCell id="8aqyun7AeXd8vVvR7GN6-40" value="EpisodesNum" style="ellipse;whiteSpace=wrap;html=1;align=center;rounded=0;" parent="1" vertex="1">
          <mxGeometry x="40" y="879" width="100" height="40" as="geometry" />
        </mxCell>
        <mxCell id="ic1XsGLHBiBLJPpKoA1E-87" style="edgeStyle=orthogonalEdgeStyle;rounded=0;orthogonalLoop=1;jettySize=auto;html=1;exitX=0;exitY=0.5;exitDx=0;exitDy=0;entryX=0.75;entryY=1;entryDx=0;entryDy=0;fontSize=21;endArrow=none;endFill=0;" parent="1" source="8aqyun7AeXd8vVvR7GN6-41" target="7o3vYwH5cnDtXFb4_Unw-54" edge="1">
          <mxGeometry relative="1" as="geometry">
            <Array as="points">
              <mxPoint x="270" y="580" />
            </Array>
          </mxGeometry>
        </mxCell>
        <mxCell id="8aqyun7AeXd8vVvR7GN6-41" value="Media" style="ellipse;whiteSpace=wrap;html=1;align=center;rounded=0;" parent="1" vertex="1">
          <mxGeometry x="280" y="560" width="100" height="40" as="geometry" />
        </mxCell>
        <mxCell id="ic1XsGLHBiBLJPpKoA1E-89" style="edgeStyle=orthogonalEdgeStyle;rounded=0;orthogonalLoop=1;jettySize=auto;html=1;exitX=0;exitY=0.5;exitDx=0;exitDy=0;entryX=0.75;entryY=1;entryDx=0;entryDy=0;fontSize=21;endArrow=none;endFill=0;" parent="1" source="8aqyun7AeXd8vVvR7GN6-42" target="7o3vYwH5cnDtXFb4_Unw-54" edge="1">
          <mxGeometry relative="1" as="geometry">
            <Array as="points">
              <mxPoint x="270" y="740" />
            </Array>
          </mxGeometry>
        </mxCell>
        <mxCell id="8aqyun7AeXd8vVvR7GN6-42" value="Timespan" style="ellipse;whiteSpace=wrap;html=1;align=center;rounded=0;" parent="1" vertex="1">
          <mxGeometry x="280" y="720" width="100" height="40" as="geometry" />
        </mxCell>
        <mxCell id="ic1XsGLHBiBLJPpKoA1E-90" style="edgeStyle=orthogonalEdgeStyle;rounded=0;orthogonalLoop=1;jettySize=auto;html=1;exitX=0;exitY=0.5;exitDx=0;exitDy=0;entryX=0.75;entryY=1;entryDx=0;entryDy=0;fontSize=21;endArrow=none;endFill=0;" parent="1" source="8aqyun7AeXd8vVvR7GN6-56" target="7o3vYwH5cnDtXFb4_Unw-54" edge="1">
          <mxGeometry relative="1" as="geometry">
            <Array as="points">
              <mxPoint x="270" y="820" />
            </Array>
          </mxGeometry>
        </mxCell>
        <mxCell id="8aqyun7AeXd8vVvR7GN6-56" value="Description" style="ellipse;whiteSpace=wrap;html=1;align=center;rounded=0;" parent="1" vertex="1">
          <mxGeometry x="280" y="800" width="100" height="40" as="geometry" />
        </mxCell>
        <mxCell id="sxgCxHeBCdCzxEI4LQtO-49" style="edgeStyle=orthogonalEdgeStyle;rounded=0;orthogonalLoop=1;jettySize=auto;html=1;exitX=1;exitY=0.5;exitDx=0;exitDy=0;entryX=0;entryY=1;entryDx=0;entryDy=0;fontSize=16;fontColor=#000000;endArrow=none;endFill=0;" parent="1" source="8aqyun7AeXd8vVvR7GN6-57" target="7o3vYwH5cnDtXFb4_Unw-54" edge="1">
          <mxGeometry relative="1" as="geometry">
            <Array as="points">
              <mxPoint x="160" y="659" />
              <mxPoint x="160" y="360" />
            </Array>
          </mxGeometry>
        </mxCell>
        <mxCell id="8aqyun7AeXd8vVvR7GN6-57" value="TrailerURL" style="ellipse;whiteSpace=wrap;html=1;align=center;rounded=0;" parent="1" vertex="1">
          <mxGeometry x="40" y="639" width="100" height="40" as="geometry" />
        </mxCell>
        <mxCell id="sxgCxHeBCdCzxEI4LQtO-45" style="edgeStyle=orthogonalEdgeStyle;rounded=0;orthogonalLoop=1;jettySize=auto;html=1;exitX=1;exitY=0.5;exitDx=0;exitDy=0;entryX=0;entryY=1;entryDx=0;entryDy=0;dashed=1;fontSize=16;fontColor=#000000;endArrow=none;endFill=0;" parent="1" source="8aqyun7AeXd8vVvR7GN6-58" target="7o3vYwH5cnDtXFb4_Unw-54" edge="1">
          <mxGeometry relative="1" as="geometry">
            <Array as="points">
              <mxPoint x="160" y="979" />
              <mxPoint x="160" y="360" />
            </Array>
          </mxGeometry>
        </mxCell>
        <mxCell id="8aqyun7AeXd8vVvR7GN6-58" value="VideosNum" style="ellipse;whiteSpace=wrap;html=1;align=center;rounded=0;dashed=1;" parent="1" vertex="1">
          <mxGeometry x="40" y="959" width="100" height="40" as="geometry" />
        </mxCell>
        <mxCell id="sxgCxHeBCdCzxEI4LQtO-47" style="edgeStyle=orthogonalEdgeStyle;rounded=0;orthogonalLoop=1;jettySize=auto;html=1;exitX=1;exitY=0.5;exitDx=0;exitDy=0;entryX=0;entryY=1;entryDx=0;entryDy=0;fontSize=16;fontColor=#000000;endArrow=none;endFill=0;" parent="1" source="8aqyun7AeXd8vVvR7GN6-59" target="7o3vYwH5cnDtXFb4_Unw-54" edge="1">
          <mxGeometry relative="1" as="geometry">
            <Array as="points">
              <mxPoint x="160" y="499" />
              <mxPoint x="160" y="360" />
            </Array>
          </mxGeometry>
        </mxCell>
        <mxCell id="8aqyun7AeXd8vVvR7GN6-59" value="CoverURL" style="ellipse;whiteSpace=wrap;html=1;align=center;rounded=0;" parent="1" vertex="1">
          <mxGeometry x="40" y="479" width="100" height="40" as="geometry" />
        </mxCell>
        <mxCell id="sxgCxHeBCdCzxEI4LQtO-43" style="edgeStyle=orthogonalEdgeStyle;rounded=0;orthogonalLoop=1;jettySize=auto;html=1;exitX=1;exitY=0.5;exitDx=0;exitDy=0;entryX=0;entryY=1;entryDx=0;entryDy=0;dashed=1;fontSize=16;fontColor=#000000;endArrow=none;endFill=0;" parent="1" source="8aqyun7AeXd8vVvR7GN6-60" target="7o3vYwH5cnDtXFb4_Unw-54" edge="1">
          <mxGeometry relative="1" as="geometry">
            <Array as="points">
              <mxPoint x="160" y="739" />
              <mxPoint x="160" y="360" />
            </Array>
          </mxGeometry>
        </mxCell>
        <mxCell id="8aqyun7AeXd8vVvR7GN6-60" value="ImagesNum" style="ellipse;whiteSpace=wrap;html=1;align=center;rounded=0;dashed=1;" parent="1" vertex="1">
          <mxGeometry x="40" y="719" width="100" height="40" as="geometry" />
        </mxCell>
        <mxCell id="sxgCxHeBCdCzxEI4LQtO-50" style="edgeStyle=orthogonalEdgeStyle;rounded=0;orthogonalLoop=1;jettySize=auto;html=1;exitX=1;exitY=0.5;exitDx=0;exitDy=0;entryX=0;entryY=1;entryDx=0;entryDy=0;fontSize=16;fontColor=#000000;endArrow=none;endFill=0;" parent="1" source="8aqyun7AeXd8vVvR7GN6-61" target="7o3vYwH5cnDtXFb4_Unw-54" edge="1">
          <mxGeometry relative="1" as="geometry">
            <Array as="points">
              <mxPoint x="160" y="819" />
              <mxPoint x="160" y="360" />
            </Array>
          </mxGeometry>
        </mxCell>
        <mxCell id="8aqyun7AeXd8vVvR7GN6-61" value="Years" style="ellipse;whiteSpace=wrap;html=1;align=center;rounded=0;" parent="1" vertex="1">
          <mxGeometry x="40" y="799" width="100" height="40" as="geometry" />
        </mxCell>
        <mxCell id="ic1XsGLHBiBLJPpKoA1E-91" style="edgeStyle=orthogonalEdgeStyle;rounded=0;orthogonalLoop=1;jettySize=auto;html=1;exitX=0;exitY=0.5;exitDx=0;exitDy=0;entryX=0.75;entryY=1;entryDx=0;entryDy=0;fontSize=21;endArrow=none;endFill=0;" parent="1" source="8aqyun7AeXd8vVvR7GN6-62" target="7o3vYwH5cnDtXFb4_Unw-54" edge="1">
          <mxGeometry relative="1" as="geometry">
            <Array as="points">
              <mxPoint x="270" y="900" />
            </Array>
          </mxGeometry>
        </mxCell>
        <mxCell id="8aqyun7AeXd8vVvR7GN6-62" value="Seasons" style="ellipse;whiteSpace=wrap;html=1;align=center;rounded=0;" parent="1" vertex="1">
          <mxGeometry x="280" y="880" width="100" height="40" as="geometry" />
        </mxCell>
        <mxCell id="59hTg4i9WxtJLP-nNg0J-8" style="edgeStyle=none;rounded=0;orthogonalLoop=1;jettySize=auto;html=1;exitX=0;exitY=0.5;exitDx=0;exitDy=0;entryX=1;entryY=0.5;entryDx=0;entryDy=0;endArrow=none;endFill=0;" parent="1" source="8aqyun7AeXd8vVvR7GN6-63" target="7o3vYwH5cnDtXFb4_Unw-8" edge="1">
          <mxGeometry relative="1" as="geometry" />
        </mxCell>
        <mxCell id="8aqyun7AeXd8vVvR7GN6-63" value="LastName" style="ellipse;whiteSpace=wrap;html=1;align=center;rounded=0;" parent="1" vertex="1">
          <mxGeometry x="1074" y="720" width="100" height="40" as="geometry" />
        </mxCell>
        <mxCell id="8aqyun7AeXd8vVvR7GN6-64" value="FirstName" style="ellipse;whiteSpace=wrap;html=1;align=center;rounded=0;" parent="1" vertex="1">
          <mxGeometry x="1074" y="657" width="100" height="40" as="geometry" />
        </mxCell>
        <mxCell id="NMomimD1FpmeGMdiOsrc-55" value="" style="shape=link;html=1;rounded=0;fontSize=22;endArrow=none;endFill=0;width=13.076923076923077;strokeColor=#B09500;" parent="1" edge="1">
          <mxGeometry relative="1" as="geometry">
            <mxPoint x="1428" y="1110" as="sourcePoint" />
            <mxPoint x="1426" y="360" as="targetPoint" />
          </mxGeometry>
        </mxCell>
        <mxCell id="NMomimD1FpmeGMdiOsrc-56" value="1" style="resizable=0;html=1;align=right;verticalAlign=bottom;fontSize=23;rounded=0;labelBackgroundColor=default;" parent="NMomimD1FpmeGMdiOsrc-55" connectable="0" vertex="1">
          <mxGeometry x="1" relative="1" as="geometry">
            <mxPoint x="9" y="701" as="offset" />
          </mxGeometry>
        </mxCell>
        <mxCell id="NMomimD1FpmeGMdiOsrc-60" value="" style="shape=link;html=1;rounded=0;fontSize=22;endArrow=none;endFill=0;exitX=0.5;exitY=0;exitDx=0;exitDy=0;width=13.076923076923077;strokeColor=#B09500;" parent="1" source="puiFlrzKT8CEFiVwOP3T-1" edge="1">
          <mxGeometry relative="1" as="geometry">
            <mxPoint x="189" y="1103" as="sourcePoint" />
            <mxPoint x="220" y="360" as="targetPoint" />
          </mxGeometry>
        </mxCell>
        <mxCell id="NMomimD1FpmeGMdiOsrc-61" value="1" style="resizable=0;html=1;align=right;verticalAlign=bottom;fontSize=20;rounded=0;labelBackgroundColor=default;" parent="NMomimD1FpmeGMdiOsrc-60" connectable="0" vertex="1">
          <mxGeometry x="1" relative="1" as="geometry">
            <mxPoint x="7" y="720" as="offset" />
          </mxGeometry>
        </mxCell>
        <mxCell id="NMomimD1FpmeGMdiOsrc-109" value="&lt;b&gt;VotesForS&lt;/b&gt;" style="shape=rhombus;perimeter=rhombusPerimeter;whiteSpace=wrap;html=1;align=center;fontFamily=Helvetica;fontSize=14;strokeColor=#10739e;fillColor=#b1ddf0;" parent="1" vertex="1">
          <mxGeometry x="207" y="51" width="110" height="60" as="geometry" />
        </mxCell>
        <mxCell id="X0ftvepNIZ-Nx8N8yRDw-6" style="edgeStyle=orthogonalEdgeStyle;rounded=0;orthogonalLoop=1;jettySize=auto;html=1;exitX=0;exitY=1;exitDx=0;exitDy=0;entryX=1;entryY=0.5;entryDx=0;entryDy=0;endArrow=none;endFill=0;" parent="1" source="NMomimD1FpmeGMdiOsrc-110" target="X0ftvepNIZ-Nx8N8yRDw-5" edge="1">
          <mxGeometry relative="1" as="geometry">
            <Array as="points">
              <mxPoint x="1310" y="96" />
              <mxPoint x="1310" y="107" />
            </Array>
          </mxGeometry>
        </mxCell>
        <mxCell id="NMomimD1FpmeGMdiOsrc-110" value="&lt;p style=&quot;line-height: 100%;&quot;&gt;&lt;b&gt;VotesForM&lt;/b&gt;&lt;/p&gt;" style="shape=rhombus;perimeter=rhombusPerimeter;whiteSpace=wrap;html=1;align=center;fontFamily=Helvetica;fontSize=14;strokeColor=#10739e;fillColor=#b1ddf0;" parent="1" vertex="1">
          <mxGeometry x="1330" y="51" width="110" height="60" as="geometry" />
        </mxCell>
        <mxCell id="6eaYVuAnAri0T7J8yDLd-9" style="edgeStyle=orthogonalEdgeStyle;rounded=0;orthogonalLoop=1;jettySize=auto;html=1;exitX=0;exitY=0.5;exitDx=0;exitDy=0;endArrow=none;endFill=0;entryX=1;entryY=0.5;entryDx=0;entryDy=0;" parent="1" source="NMomimD1FpmeGMdiOsrc-111" target="NMomimD1FpmeGMdiOsrc-145" edge="1">
          <mxGeometry relative="1" as="geometry">
            <mxPoint x="770" y="113.15384615384619" as="targetPoint" />
            <Array as="points">
              <mxPoint x="780" y="100" />
              <mxPoint x="700" y="100" />
              <mxPoint x="700" y="149" />
            </Array>
          </mxGeometry>
        </mxCell>
        <mxCell id="6eaYVuAnAri0T7J8yDLd-12" style="edgeStyle=orthogonalEdgeStyle;rounded=0;orthogonalLoop=1;jettySize=auto;html=1;exitX=0;exitY=1;exitDx=0;exitDy=0;entryX=0.5;entryY=0;entryDx=0;entryDy=0;endArrow=none;endFill=0;" parent="1" source="NMomimD1FpmeGMdiOsrc-111" target="NMomimD1FpmeGMdiOsrc-140" edge="1">
          <mxGeometry relative="1" as="geometry">
            <Array as="points">
              <mxPoint x="720" y="120" />
              <mxPoint x="720" y="160" />
              <mxPoint x="695" y="160" />
            </Array>
          </mxGeometry>
        </mxCell>
        <mxCell id="6eaYVuAnAri0T7J8yDLd-17" style="edgeStyle=orthogonalEdgeStyle;rounded=0;orthogonalLoop=1;jettySize=auto;html=1;exitX=1;exitY=1;exitDx=0;exitDy=0;entryX=0.5;entryY=0;entryDx=0;entryDy=0;endArrow=none;endFill=0;" parent="1" source="NMomimD1FpmeGMdiOsrc-111" target="KhHhmspxeSsIz6SWaP1c-6" edge="1">
          <mxGeometry relative="1" as="geometry">
            <Array as="points">
              <mxPoint x="980" y="120" />
              <mxPoint x="980" y="160" />
              <mxPoint x="1001" y="160" />
              <mxPoint x="1001" y="169" />
            </Array>
          </mxGeometry>
        </mxCell>
        <mxCell id="6eaYVuAnAri0T7J8yDLd-18" style="edgeStyle=orthogonalEdgeStyle;rounded=0;orthogonalLoop=1;jettySize=auto;html=1;exitX=1;exitY=0.5;exitDx=0;exitDy=0;entryX=0;entryY=0.5;entryDx=0;entryDy=0;endArrow=none;endFill=0;" parent="1" source="NMomimD1FpmeGMdiOsrc-111" target="KhHhmspxeSsIz6SWaP1c-8" edge="1">
          <mxGeometry relative="1" as="geometry">
            <Array as="points">
              <mxPoint x="1000" y="100" />
              <mxPoint x="1000" y="140" />
              <mxPoint x="1056" y="140" />
            </Array>
          </mxGeometry>
        </mxCell>
        <mxCell id="6eaYVuAnAri0T7J8yDLd-19" style="edgeStyle=orthogonalEdgeStyle;rounded=0;orthogonalLoop=1;jettySize=auto;html=1;exitX=1;exitY=0.5;exitDx=0;exitDy=0;entryX=0.5;entryY=0;entryDx=0;entryDy=0;endArrow=none;endFill=0;" parent="1" source="NMomimD1FpmeGMdiOsrc-111" target="KhHhmspxeSsIz6SWaP1c-3" edge="1">
          <mxGeometry relative="1" as="geometry">
            <Array as="points">
              <mxPoint x="1000" y="100" />
              <mxPoint x="1090" y="100" />
            </Array>
          </mxGeometry>
        </mxCell>
        <mxCell id="NMomimD1FpmeGMdiOsrc-111" value="User" style="whiteSpace=wrap;html=1;align=center;fontSize=14;rounded=0;" parent="1" vertex="1">
          <mxGeometry x="800" y="79.5" width="100" height="40" as="geometry" />
        </mxCell>
        <mxCell id="NMomimD1FpmeGMdiOsrc-122" value="" style="endArrow=none;html=1;rounded=0;fontFamily=Helvetica;fontSize=14;fontColor=default;align=center;strokeColor=#B09500;edgeStyle=orthogonalEdgeStyle;exitX=1;exitY=0;exitDx=0;exitDy=0;entryX=0;entryY=0.5;entryDx=0;entryDy=0;" parent="1" source="NMomimD1FpmeGMdiOsrc-111" target="NMomimD1FpmeGMdiOsrc-110" edge="1">
          <mxGeometry relative="1" as="geometry">
            <mxPoint x="1269.9084249084249" y="40.57142857142867" as="sourcePoint" />
            <mxPoint x="1300" y="50" as="targetPoint" />
            <Array as="points">
              <mxPoint x="900" y="80" />
            </Array>
          </mxGeometry>
        </mxCell>
        <mxCell id="NMomimD1FpmeGMdiOsrc-123" value="N" style="resizable=0;html=1;align=right;verticalAlign=bottom;fontSize=20;rounded=0;labelBackgroundColor=default;" parent="NMomimD1FpmeGMdiOsrc-122" connectable="0" vertex="1">
          <mxGeometry x="1" relative="1" as="geometry">
            <mxPoint x="-123" y="9" as="offset" />
          </mxGeometry>
        </mxCell>
        <mxCell id="NMomimD1FpmeGMdiOsrc-124" value="" style="endArrow=none;html=1;rounded=0;fontFamily=Helvetica;fontSize=14;fontColor=default;align=center;strokeColor=#B09500;entryX=0.678;entryY=0.001;entryDx=0;entryDy=0;entryPerimeter=0;" parent="1" source="NMomimD1FpmeGMdiOsrc-109" target="7o3vYwH5cnDtXFb4_Unw-54" edge="1">
          <mxGeometry relative="1" as="geometry">
            <mxPoint x="310" y="100" as="sourcePoint" />
            <mxPoint x="240" y="201" as="targetPoint" />
          </mxGeometry>
        </mxCell>
        <mxCell id="NMomimD1FpmeGMdiOsrc-125" value="M" style="resizable=0;html=1;align=left;verticalAlign=bottom;fontSize=20;rounded=0;labelBackgroundColor=default;" parent="NMomimD1FpmeGMdiOsrc-124" connectable="0" vertex="1">
          <mxGeometry x="-1" relative="1" as="geometry">
            <mxPoint x="-9" y="30" as="offset" />
          </mxGeometry>
        </mxCell>
        <mxCell id="sxgCxHeBCdCzxEI4LQtO-40" style="edgeStyle=orthogonalEdgeStyle;rounded=0;orthogonalLoop=1;jettySize=auto;html=1;exitX=1;exitY=0.5;exitDx=0;exitDy=0;entryX=0;entryY=0;entryDx=0;entryDy=0;fontSize=16;fontColor=#000000;endArrow=none;endFill=0;dashed=1;" parent="1" source="NMomimD1FpmeGMdiOsrc-131" target="7o3vYwH5cnDtXFb4_Unw-54" edge="1">
          <mxGeometry relative="1" as="geometry">
            <Array as="points">
              <mxPoint x="160" y="180" />
              <mxPoint x="160" y="320" />
            </Array>
          </mxGeometry>
        </mxCell>
        <mxCell id="NMomimD1FpmeGMdiOsrc-131" value="&lt;font style=&quot;font-size: 14px;&quot;&gt;StarRating&lt;/font&gt;" style="ellipse;whiteSpace=wrap;html=1;align=center;dashed=1;fontSize=22;rounded=0;" parent="1" vertex="1">
          <mxGeometry x="40" y="160" width="100" height="40" as="geometry" />
        </mxCell>
        <mxCell id="6eaYVuAnAri0T7J8yDLd-5" style="edgeStyle=orthogonalEdgeStyle;rounded=0;orthogonalLoop=1;jettySize=auto;html=1;exitX=0;exitY=0.5;exitDx=0;exitDy=0;entryX=1;entryY=0;entryDx=0;entryDy=0;dashed=1;endArrow=none;endFill=0;" parent="1" edge="1">
          <mxGeometry relative="1" as="geometry">
            <mxPoint x="1506" y="180" as="sourcePoint" />
            <mxPoint x="1466" y="320" as="targetPoint" />
            <Array as="points">
              <mxPoint x="1483" y="180" />
              <mxPoint x="1483" y="320" />
            </Array>
          </mxGeometry>
        </mxCell>
        <mxCell id="NMomimD1FpmeGMdiOsrc-133" value="&lt;font style=&quot;font-size: 14px;&quot;&gt;StarRating&lt;/font&gt;" style="ellipse;whiteSpace=wrap;html=1;align=center;dashed=1;fontSize=22;rounded=0;" parent="1" vertex="1">
          <mxGeometry x="1503" y="160" width="100" height="40" as="geometry" />
        </mxCell>
        <mxCell id="X0ftvepNIZ-Nx8N8yRDw-3" style="edgeStyle=orthogonalEdgeStyle;rounded=0;orthogonalLoop=1;jettySize=auto;html=1;exitX=0.5;exitY=0;exitDx=0;exitDy=0;entryX=1;entryY=1;entryDx=0;entryDy=0;endArrow=none;endFill=0;" parent="1" source="NMomimD1FpmeGMdiOsrc-135" target="NMomimD1FpmeGMdiOsrc-109" edge="1">
          <mxGeometry relative="1" as="geometry">
            <Array as="points">
              <mxPoint x="330" y="96" />
            </Array>
          </mxGeometry>
        </mxCell>
        <mxCell id="NMomimD1FpmeGMdiOsrc-135" value="Vote" style="ellipse;whiteSpace=wrap;html=1;align=center;fontSize=14;rounded=0;" parent="1" vertex="1">
          <mxGeometry x="305" y="113" width="50" height="40" as="geometry" />
        </mxCell>
        <mxCell id="NMomimD1FpmeGMdiOsrc-140" value="UserID" style="ellipse;whiteSpace=wrap;html=1;align=center;fontStyle=4;fontSize=14;rounded=0;" parent="1" vertex="1">
          <mxGeometry x="661.25" y="170" width="67.75" height="40" as="geometry" />
        </mxCell>
        <mxCell id="6eaYVuAnAri0T7J8yDLd-10" style="edgeStyle=none;rounded=0;orthogonalLoop=1;jettySize=auto;html=1;exitX=0;exitY=0.5;exitDx=0;exitDy=0;entryX=1;entryY=0;entryDx=0;entryDy=0;endArrow=none;endFill=0;" parent="1" source="NMomimD1FpmeGMdiOsrc-145" target="NMomimD1FpmeGMdiOsrc-146" edge="1">
          <mxGeometry relative="1" as="geometry" />
        </mxCell>
        <mxCell id="6eaYVuAnAri0T7J8yDLd-11" style="edgeStyle=none;rounded=0;orthogonalLoop=1;jettySize=auto;html=1;exitX=0;exitY=0.5;exitDx=0;exitDy=0;entryX=1;entryY=0.5;entryDx=0;entryDy=0;endArrow=none;endFill=0;" parent="1" source="NMomimD1FpmeGMdiOsrc-145" target="NMomimD1FpmeGMdiOsrc-147" edge="1">
          <mxGeometry relative="1" as="geometry" />
        </mxCell>
        <mxCell id="NMomimD1FpmeGMdiOsrc-145" value="FullName" style="ellipse;whiteSpace=wrap;html=1;align=center;rounded=0;" parent="1" vertex="1">
          <mxGeometry x="587.88" y="120" width="67.75" height="40" as="geometry" />
        </mxCell>
        <mxCell id="NMomimD1FpmeGMdiOsrc-146" value="LastName" style="ellipse;whiteSpace=wrap;html=1;align=center;rounded=0;" parent="1" vertex="1">
          <mxGeometry x="517.06" y="169" width="60" height="40" as="geometry" />
        </mxCell>
        <mxCell id="NMomimD1FpmeGMdiOsrc-147" value="FirstName" style="ellipse;whiteSpace=wrap;html=1;align=center;rounded=0;" parent="1" vertex="1">
          <mxGeometry x="515.1299999999999" y="100" width="63.87" height="40" as="geometry" />
        </mxCell>
        <mxCell id="6eaYVuAnAri0T7J8yDLd-32" style="edgeStyle=orthogonalEdgeStyle;rounded=0;orthogonalLoop=1;jettySize=auto;html=1;exitX=0;exitY=0.5;exitDx=0;exitDy=0;fontSize=16;endArrow=none;endFill=0;dashed=1;" parent="1" edge="1">
          <mxGeometry relative="1" as="geometry">
            <mxPoint x="1483" y="181.99999999999994" as="targetPoint" />
            <mxPoint x="1505.999999999995" y="101.5" as="sourcePoint" />
            <Array as="points">
              <mxPoint x="1506" y="100" />
              <mxPoint x="1483" y="100" />
            </Array>
          </mxGeometry>
        </mxCell>
        <mxCell id="NMomimD1FpmeGMdiOsrc-152" value="Popularity" style="ellipse;whiteSpace=wrap;html=1;align=center;dashed=1;rounded=0;" parent="1" vertex="1">
          <mxGeometry x="1503" y="79.5" width="100" height="40" as="geometry" />
        </mxCell>
        <mxCell id="puiFlrzKT8CEFiVwOP3T-8" style="edgeStyle=orthogonalEdgeStyle;rounded=0;orthogonalLoop=1;jettySize=auto;html=1;exitX=0.5;exitY=1;exitDx=0;exitDy=0;entryX=0.75;entryY=1;entryDx=0;entryDy=0;fontSize=12;endArrow=none;endFill=0;" parent="1" source="NMomimD1FpmeGMdiOsrc-157" target="7o3vYwH5cnDtXFb4_Unw-1" edge="1">
          <mxGeometry relative="1" as="geometry" />
        </mxCell>
        <mxCell id="NMomimD1FpmeGMdiOsrc-157" value="BornDate" style="ellipse;whiteSpace=wrap;html=1;align=center;fontSize=14;rounded=0;" parent="1" vertex="1">
          <mxGeometry x="1074" y="811" width="100" height="40" as="geometry" />
        </mxCell>
        <mxCell id="NMomimD1FpmeGMdiOsrc-160" value="DeathLocation" style="ellipse;whiteSpace=wrap;html=1;align=center;fontSize=14;rounded=0;" parent="1" vertex="1">
          <mxGeometry x="955.0000000000001" y="890" width="100" height="40" as="geometry" />
        </mxCell>
        <mxCell id="puiFlrzKT8CEFiVwOP3T-7" style="edgeStyle=orthogonalEdgeStyle;rounded=0;orthogonalLoop=1;jettySize=auto;html=1;exitX=0.5;exitY=1;exitDx=0;exitDy=0;entryX=0.75;entryY=1;entryDx=0;entryDy=0;fontSize=12;endArrow=none;endFill=0;" parent="1" source="NMomimD1FpmeGMdiOsrc-161" target="7o3vYwH5cnDtXFb4_Unw-1" edge="1">
          <mxGeometry relative="1" as="geometry" />
        </mxCell>
        <mxCell id="NMomimD1FpmeGMdiOsrc-161" value="BornLocation" style="ellipse;whiteSpace=wrap;html=1;align=center;fontSize=14;rounded=0;" parent="1" vertex="1">
          <mxGeometry x="955.0000000000001" y="811" width="100" height="40" as="geometry" />
        </mxCell>
        <mxCell id="puiFlrzKT8CEFiVwOP3T-9" style="edgeStyle=orthogonalEdgeStyle;rounded=0;orthogonalLoop=1;jettySize=auto;html=1;exitX=0.5;exitY=0;exitDx=0;exitDy=0;entryX=0.75;entryY=1;entryDx=0;entryDy=0;fontSize=12;endArrow=none;endFill=0;" parent="1" source="NMomimD1FpmeGMdiOsrc-164" target="7o3vYwH5cnDtXFb4_Unw-1" edge="1">
          <mxGeometry relative="1" as="geometry">
            <Array as="points">
              <mxPoint x="1124" y="870" />
              <mxPoint x="880" y="870" />
            </Array>
          </mxGeometry>
        </mxCell>
        <mxCell id="NMomimD1FpmeGMdiOsrc-164" value="DeathDate" style="ellipse;whiteSpace=wrap;html=1;align=center;fontSize=14;rounded=0;" parent="1" vertex="1">
          <mxGeometry x="1074" y="890" width="100" height="40" as="geometry" />
        </mxCell>
        <mxCell id="puiFlrzKT8CEFiVwOP3T-11" style="edgeStyle=orthogonalEdgeStyle;rounded=0;orthogonalLoop=1;jettySize=auto;html=1;exitX=0;exitY=0.5;exitDx=0;exitDy=0;entryX=0.75;entryY=1;entryDx=0;entryDy=0;dashed=1;fontSize=12;endArrow=none;endFill=0;" parent="1" target="7o3vYwH5cnDtXFb4_Unw-1" edge="1">
          <mxGeometry relative="1" as="geometry">
            <mxPoint x="1162" y="871" as="sourcePoint" />
            <mxPoint x="880" y="735" as="targetPoint" />
          </mxGeometry>
        </mxCell>
        <mxCell id="NMomimD1FpmeGMdiOsrc-166" value="Age" style="ellipse;whiteSpace=wrap;html=1;align=center;dashed=1;fontSize=14;rounded=0;" parent="1" vertex="1">
          <mxGeometry x="1140" y="850" width="100" height="40" as="geometry" />
        </mxCell>
        <mxCell id="NMomimD1FpmeGMdiOsrc-168" value="FilmCrewID" style="ellipse;whiteSpace=wrap;html=1;align=center;fontStyle=4;fontSize=14;rounded=0;" parent="1" vertex="1">
          <mxGeometry x="658.29" y="750" width="100" height="40" as="geometry" />
        </mxCell>
        <mxCell id="puiFlrzKT8CEFiVwOP3T-14" style="edgeStyle=orthogonalEdgeStyle;rounded=0;orthogonalLoop=1;jettySize=auto;html=1;exitX=0.5;exitY=0;exitDx=0;exitDy=0;entryX=0.25;entryY=1;entryDx=0;entryDy=0;fontSize=12;endArrow=none;endFill=0;" parent="1" source="jk56XIw5EBE-21qGrqAY-1" target="7o3vYwH5cnDtXFb4_Unw-1" edge="1">
          <mxGeometry relative="1" as="geometry">
            <Array as="points">
              <mxPoint x="708" y="870" />
              <mxPoint x="820" y="870" />
            </Array>
          </mxGeometry>
        </mxCell>
        <mxCell id="jk56XIw5EBE-21qGrqAY-1" value="Description" style="ellipse;whiteSpace=wrap;html=1;align=center;rounded=0;" parent="1" vertex="1">
          <mxGeometry x="658.29" y="890" width="100" height="40" as="geometry" />
        </mxCell>
        <mxCell id="59hTg4i9WxtJLP-nNg0J-22" value="&lt;b style=&quot;&quot;&gt;&lt;font style=&quot;font-size: 12px;&quot;&gt;MemberOfCrew&lt;/font&gt;&lt;/b&gt;" style="shape=associativeEntity;whiteSpace=wrap;html=1;align=center;fontFamily=Helvetica;fontSize=12;fontColor=default;strokeColor=default;fillColor=default;rounded=0;shadow=0;" parent="1" vertex="1">
          <mxGeometry x="791" y="1113" width="120" height="40" as="geometry" />
        </mxCell>
        <mxCell id="59hTg4i9WxtJLP-nNg0J-33" value="" style="shape=link;html=1;rounded=0;endArrow=none;endFill=0;exitX=0;exitY=0.5;exitDx=0;exitDy=0;entryX=1;entryY=0.5;entryDx=0;entryDy=0;width=12.38095238095238;strokeColor=#B09500;" parent="1" source="59hTg4i9WxtJLP-nNg0J-52" target="59hTg4i9WxtJLP-nNg0J-22" edge="1">
          <mxGeometry relative="1" as="geometry">
            <mxPoint x="1342.9999999999995" y="1133" as="sourcePoint" />
            <mxPoint x="1120" y="1132.6599999999999" as="targetPoint" />
            <Array as="points">
              <mxPoint x="930" y="1133" />
            </Array>
          </mxGeometry>
        </mxCell>
        <mxCell id="59hTg4i9WxtJLP-nNg0J-34" value="&lt;span style=&quot;font-size: 20px;&quot;&gt;M&lt;/span&gt;" style="resizable=0;html=1;align=left;verticalAlign=bottom;labelBackgroundColor=default;fontSize=20;fontColor=#003333;" parent="59hTg4i9WxtJLP-nNg0J-33" connectable="0" vertex="1">
          <mxGeometry x="-1" relative="1" as="geometry">
            <mxPoint x="-197" y="13" as="offset" />
          </mxGeometry>
        </mxCell>
        <mxCell id="59hTg4i9WxtJLP-nNg0J-36" value="" style="shape=link;html=1;rounded=0;endArrow=none;endFill=0;exitX=1;exitY=0.5;exitDx=0;exitDy=0;entryX=0;entryY=0.5;entryDx=0;entryDy=0;width=10;strokeColor=#B09500;" parent="1" source="puiFlrzKT8CEFiVwOP3T-1" target="59hTg4i9WxtJLP-nNg0J-22" edge="1">
          <mxGeometry relative="1" as="geometry">
            <mxPoint x="229" y="1133" as="sourcePoint" />
            <mxPoint x="650" y="1093" as="targetPoint" />
            <Array as="points">
              <mxPoint x="560" y="1133" />
            </Array>
          </mxGeometry>
        </mxCell>
        <mxCell id="59hTg4i9WxtJLP-nNg0J-37" value="M" style="resizable=0;html=1;align=left;verticalAlign=bottom;fontSize=20;labelBackgroundColor=default;" parent="59hTg4i9WxtJLP-nNg0J-36" connectable="0" vertex="1">
          <mxGeometry x="-1" relative="1" as="geometry">
            <mxPoint x="253" y="12" as="offset" />
          </mxGeometry>
        </mxCell>
        <mxCell id="59hTg4i9WxtJLP-nNg0J-52" value="&lt;p style=&quot;line-height: 90%;&quot;&gt;&lt;/p&gt;&lt;div style=&quot;line-height: 100%;&quot;&gt;&lt;b style=&quot;background-color: initial;&quot;&gt;&lt;br&gt;Produced&lt;/b&gt;&lt;/div&gt;&lt;font style=&quot;font-size: 14px;&quot;&gt;&lt;span style=&quot;font-size: 14px;&quot;&gt;&lt;b&gt;By&lt;/b&gt;&lt;/span&gt;&lt;/font&gt;&lt;p&gt;&lt;/p&gt;" style="shape=rhombus;double=1;perimeter=rhombusPerimeter;whiteSpace=wrap;html=1;align=center;fontFamily=Helvetica;fontSize=14;strokeColor=#10739e;fillColor=#b1ddf0;fillStyle=auto;" parent="1" vertex="1">
          <mxGeometry x="1383" y="1103" width="90" height="60" as="geometry" />
        </mxCell>
        <mxCell id="puiFlrzKT8CEFiVwOP3T-2" style="edgeStyle=orthogonalEdgeStyle;rounded=0;orthogonalLoop=1;jettySize=auto;html=1;exitX=1;exitY=0;exitDx=0;exitDy=0;entryX=0.5;entryY=1;entryDx=0;entryDy=0;fontSize=12;endArrow=none;endFill=0;" parent="1" source="59hTg4i9WxtJLP-nNg0J-53" target="59hTg4i9WxtJLP-nNg0J-54" edge="1">
          <mxGeometry relative="1" as="geometry" />
        </mxCell>
        <mxCell id="puiFlrzKT8CEFiVwOP3T-5" style="edgeStyle=orthogonalEdgeStyle;rounded=0;orthogonalLoop=1;jettySize=auto;html=1;exitX=1;exitY=1;exitDx=0;exitDy=0;fontSize=12;endArrow=none;endFill=0;entryX=0.5;entryY=0;entryDx=0;entryDy=0;" parent="1" source="59hTg4i9WxtJLP-nNg0J-53" target="59hTg4i9WxtJLP-nNg0J-55" edge="1">
          <mxGeometry relative="1" as="geometry">
            <mxPoint x="1330" y="1059.8333333333335" as="targetPoint" />
          </mxGeometry>
        </mxCell>
        <mxCell id="59hTg4i9WxtJLP-nNg0J-53" value="JobsTitle" style="whiteSpace=wrap;html=1;align=center;fontSize=14;" parent="1" vertex="1">
          <mxGeometry x="1216" y="1020" width="81" height="40" as="geometry" />
        </mxCell>
        <mxCell id="59hTg4i9WxtJLP-nNg0J-54" value="JobsTitleID" style="ellipse;whiteSpace=wrap;html=1;align=center;fontStyle=4;fontSize=14;" parent="1" vertex="1">
          <mxGeometry x="1265" y="959" width="90" height="40" as="geometry" />
        </mxCell>
        <mxCell id="59hTg4i9WxtJLP-nNg0J-55" value="JobsTitle" style="ellipse;whiteSpace=wrap;html=1;align=center;fontSize=14;" parent="1" vertex="1">
          <mxGeometry x="1275" y="1076.5" width="80" height="40" as="geometry" />
        </mxCell>
        <mxCell id="59hTg4i9WxtJLP-nNg0J-58" value="have" style="shape=rhombus;perimeter=rhombusPerimeter;whiteSpace=wrap;html=1;align=center;fontSize=14;fillColor=#cce5ff;strokeColor=#36393d;" parent="1" vertex="1">
          <mxGeometry x="1116.5" y="1010" width="71" height="60" as="geometry" />
        </mxCell>
        <mxCell id="xN0LtOnhOd4wuew9kPdN-3" style="edgeStyle=orthogonalEdgeStyle;rounded=0;orthogonalLoop=1;jettySize=auto;html=1;exitX=0.5;exitY=1;exitDx=0;exitDy=0;entryX=0.25;entryY=0;entryDx=0;entryDy=0;endArrow=none;endFill=0;" parent="1" source="59hTg4i9WxtJLP-nNg0J-68" target="59hTg4i9WxtJLP-nNg0J-22" edge="1">
          <mxGeometry relative="1" as="geometry">
            <Array as="points">
              <mxPoint x="595" y="1080" />
              <mxPoint x="821" y="1080" />
            </Array>
          </mxGeometry>
        </mxCell>
        <mxCell id="59hTg4i9WxtJLP-nNg0J-68" value="&lt;font style=&quot;font-size: 12px;&quot;&gt;MemberOfCrewID&lt;/font&gt;" style="ellipse;whiteSpace=wrap;html=1;align=center;fontStyle=4;fontSize=14;" parent="1" vertex="1">
          <mxGeometry x="545.29" y="1020" width="100" height="40" as="geometry" />
        </mxCell>
        <mxCell id="sxgCxHeBCdCzxEI4LQtO-53" style="edgeStyle=orthogonalEdgeStyle;rounded=0;orthogonalLoop=1;jettySize=auto;html=1;exitX=1;exitY=0.5;exitDx=0;exitDy=0;entryX=0;entryY=1;entryDx=0;entryDy=0;fontSize=16;fontColor=#000000;endArrow=none;endFill=0;" parent="1" source="59hTg4i9WxtJLP-nNg0J-74" target="7o3vYwH5cnDtXFb4_Unw-54" edge="1">
          <mxGeometry relative="1" as="geometry">
            <Array as="points">
              <mxPoint x="160" y="440" />
              <mxPoint x="160" y="360" />
            </Array>
          </mxGeometry>
        </mxCell>
        <mxCell id="59hTg4i9WxtJLP-nNg0J-74" value="SeriesID" style="ellipse;whiteSpace=wrap;html=1;align=center;fontStyle=4;fontSize=14;rounded=0;" parent="1" vertex="1">
          <mxGeometry x="40" y="420" width="100" height="40" as="geometry" />
        </mxCell>
        <mxCell id="ic1XsGLHBiBLJPpKoA1E-1" style="edgeStyle=orthogonalEdgeStyle;rounded=0;orthogonalLoop=1;jettySize=auto;html=1;exitX=1;exitY=0.5;exitDx=0;exitDy=0;entryX=0.25;entryY=0;entryDx=0;entryDy=0;dashed=1;endArrow=none;endFill=0;" parent="1" source="7LzYlAiYox3O7CajHCze-19" target="7o3vYwH5cnDtXFb4_Unw-19" edge="1">
          <mxGeometry relative="1" as="geometry">
            <Array as="points">
              <mxPoint x="1373" y="180" />
            </Array>
          </mxGeometry>
        </mxCell>
        <mxCell id="7LzYlAiYox3O7CajHCze-19" value="AwardWinsNum" style="ellipse;whiteSpace=wrap;html=1;align=center;dashed=1;" parent="1" vertex="1">
          <mxGeometry x="1260" y="160" width="100" height="40" as="geometry" />
        </mxCell>
        <mxCell id="7LzYlAiYox3O7CajHCze-21" style="edgeStyle=orthogonalEdgeStyle;rounded=0;orthogonalLoop=1;jettySize=auto;html=1;exitX=0;exitY=0.5;exitDx=0;exitDy=0;entryX=0.75;entryY=0;entryDx=0;entryDy=0;dashed=1;endArrow=none;endFill=0;" parent="1" source="7LzYlAiYox3O7CajHCze-20" target="7o3vYwH5cnDtXFb4_Unw-54" edge="1">
          <mxGeometry relative="1" as="geometry">
            <Array as="points">
              <mxPoint x="270" y="179" />
            </Array>
          </mxGeometry>
        </mxCell>
        <mxCell id="7LzYlAiYox3O7CajHCze-20" value="AwardWinsNum" style="ellipse;whiteSpace=wrap;html=1;align=center;dashed=1;" parent="1" vertex="1">
          <mxGeometry x="280" y="159" width="100" height="40" as="geometry" />
        </mxCell>
        <mxCell id="ic1XsGLHBiBLJPpKoA1E-59" style="edgeStyle=orthogonalEdgeStyle;rounded=0;orthogonalLoop=1;jettySize=auto;html=1;entryX=0.5;entryY=0;entryDx=0;entryDy=0;fontSize=14;endArrow=none;endFill=0;exitX=0;exitY=0.75;exitDx=0;exitDy=0;" parent="1" source="ic1XsGLHBiBLJPpKoA1E-3" target="ic1XsGLHBiBLJPpKoA1E-4" edge="1">
          <mxGeometry relative="1" as="geometry">
            <mxPoint x="790" y="570" as="sourcePoint" />
            <Array as="points">
              <mxPoint x="800" y="560" />
              <mxPoint x="763" y="560" />
            </Array>
          </mxGeometry>
        </mxCell>
        <mxCell id="ic1XsGLHBiBLJPpKoA1E-60" style="edgeStyle=orthogonalEdgeStyle;rounded=0;orthogonalLoop=1;jettySize=auto;html=1;entryX=0.5;entryY=0;entryDx=0;entryDy=0;fontSize=14;endArrow=none;endFill=0;exitX=0;exitY=0.75;exitDx=0;exitDy=0;" parent="1" source="ic1XsGLHBiBLJPpKoA1E-3" target="ic1XsGLHBiBLJPpKoA1E-8" edge="1">
          <mxGeometry relative="1" as="geometry">
            <mxPoint x="760" y="530" as="sourcePoint" />
            <Array as="points">
              <mxPoint x="800" y="560" />
              <mxPoint x="598" y="560" />
            </Array>
          </mxGeometry>
        </mxCell>
        <mxCell id="ic1XsGLHBiBLJPpKoA1E-61" style="edgeStyle=orthogonalEdgeStyle;rounded=0;orthogonalLoop=1;jettySize=auto;html=1;entryX=0.5;entryY=0;entryDx=0;entryDy=0;fontSize=14;endArrow=none;endFill=0;exitX=1;exitY=0.75;exitDx=0;exitDy=0;" parent="1" source="ic1XsGLHBiBLJPpKoA1E-3" target="ic1XsGLHBiBLJPpKoA1E-31" edge="1">
          <mxGeometry relative="1" as="geometry">
            <mxPoint x="980" y="530" as="sourcePoint" />
            <Array as="points">
              <mxPoint x="900" y="560" />
              <mxPoint x="946" y="560" />
            </Array>
          </mxGeometry>
        </mxCell>
        <mxCell id="ic1XsGLHBiBLJPpKoA1E-62" style="edgeStyle=orthogonalEdgeStyle;rounded=0;orthogonalLoop=1;jettySize=auto;html=1;entryX=0.5;entryY=0;entryDx=0;entryDy=0;fontSize=14;endArrow=none;endFill=0;exitX=1;exitY=0.75;exitDx=0;exitDy=0;" parent="1" source="ic1XsGLHBiBLJPpKoA1E-3" target="ic1XsGLHBiBLJPpKoA1E-5" edge="1">
          <mxGeometry relative="1" as="geometry">
            <mxPoint x="930" y="530" as="sourcePoint" />
            <Array as="points">
              <mxPoint x="900" y="560" />
              <mxPoint x="1127" y="560" />
            </Array>
          </mxGeometry>
        </mxCell>
        <mxCell id="sa_86HW9bSHmPmkgzG64-12" style="edgeStyle=orthogonalEdgeStyle;rounded=0;orthogonalLoop=1;jettySize=auto;html=1;exitX=0;exitY=0;exitDx=0;exitDy=0;entryX=0.5;entryY=1;entryDx=0;entryDy=0;endArrow=none;endFill=0;" parent="1" source="ic1XsGLHBiBLJPpKoA1E-3" target="sa_86HW9bSHmPmkgzG64-1" edge="1">
          <mxGeometry relative="1" as="geometry" />
        </mxCell>
        <mxCell id="ic1XsGLHBiBLJPpKoA1E-3" value="Award" style="whiteSpace=wrap;html=1;align=center;fontFamily=Helvetica;fontSize=12;fontColor=default;strokeColor=default;fillColor=default;" parent="1" vertex="1">
          <mxGeometry x="800" y="520" width="100" height="40" as="geometry" />
        </mxCell>
        <mxCell id="ic1XsGLHBiBLJPpKoA1E-4" value="AwardID" style="ellipse;whiteSpace=wrap;html=1;align=center;fontStyle=4;" parent="1" vertex="1">
          <mxGeometry x="728" y="600" width="70" height="40" as="geometry" />
        </mxCell>
        <mxCell id="ic1XsGLHBiBLJPpKoA1E-5" value="Comment" style="ellipse;whiteSpace=wrap;html=1;align=center;" parent="1" vertex="1">
          <mxGeometry x="1075" y="598" width="80" height="40" as="geometry" />
        </mxCell>
        <mxCell id="ic1XsGLHBiBLJPpKoA1E-63" style="edgeStyle=orthogonalEdgeStyle;rounded=0;orthogonalLoop=1;jettySize=auto;html=1;exitX=0.5;exitY=0;exitDx=0;exitDy=0;fontSize=14;endArrow=none;endFill=0;entryX=0;entryY=0.75;entryDx=0;entryDy=0;" parent="1" source="ic1XsGLHBiBLJPpKoA1E-7" target="ic1XsGLHBiBLJPpKoA1E-3" edge="1">
          <mxGeometry relative="1" as="geometry">
            <mxPoint x="780" y="560" as="targetPoint" />
            <Array as="points">
              <mxPoint x="683" y="560" />
              <mxPoint x="800" y="560" />
            </Array>
          </mxGeometry>
        </mxCell>
        <mxCell id="ic1XsGLHBiBLJPpKoA1E-7" value="&lt;font style=&quot;font-size: 10px;&quot;&gt;WinnerOrNom&lt;/font&gt;" style="ellipse;whiteSpace=wrap;html=1;align=center;" parent="1" vertex="1">
          <mxGeometry x="643.5" y="599" width="79" height="40" as="geometry" />
        </mxCell>
        <mxCell id="ic1XsGLHBiBLJPpKoA1E-8" value="Date" style="ellipse;whiteSpace=wrap;html=1;align=center;" parent="1" vertex="1">
          <mxGeometry x="558.79" y="600" width="79" height="40" as="geometry" />
        </mxCell>
        <mxCell id="ic1XsGLHBiBLJPpKoA1E-64" style="edgeStyle=orthogonalEdgeStyle;rounded=0;orthogonalLoop=1;jettySize=auto;html=1;exitX=0.5;exitY=0;exitDx=0;exitDy=0;fontSize=14;endArrow=none;endFill=0;dashed=1;entryX=1;entryY=0.75;entryDx=0;entryDy=0;" parent="1" source="ic1XsGLHBiBLJPpKoA1E-14" target="ic1XsGLHBiBLJPpKoA1E-3" edge="1">
          <mxGeometry relative="1" as="geometry">
            <mxPoint x="920" y="560" as="targetPoint" />
            <Array as="points">
              <mxPoint x="1034" y="560" />
              <mxPoint x="900" y="560" />
            </Array>
          </mxGeometry>
        </mxCell>
        <mxCell id="ic1XsGLHBiBLJPpKoA1E-14" value="OscarOrGOlden" style="ellipse;whiteSpace=wrap;html=1;align=center;dashed=1;fontSize=10;" parent="1" vertex="1">
          <mxGeometry x="982" y="598" width="80" height="40" as="geometry" />
        </mxCell>
        <mxCell id="ic1XsGLHBiBLJPpKoA1E-31" value="Location" style="ellipse;whiteSpace=wrap;html=1;align=center;" parent="1" vertex="1">
          <mxGeometry x="900" y="599" width="68" height="40" as="geometry" />
        </mxCell>
        <mxCell id="ic1XsGLHBiBLJPpKoA1E-39" value="ParticipateIn" style="shape=rhombus;perimeter=rhombusPerimeter;whiteSpace=wrap;html=1;align=center;fontSize=14;fillColor=#b1ddf0;strokeColor=#10739e;" parent="1" vertex="1">
          <mxGeometry x="800" y="600" width="100" height="60" as="geometry" />
        </mxCell>
        <mxCell id="ic1XsGLHBiBLJPpKoA1E-40" value="" style="endArrow=none;html=1;rounded=0;fontSize=14;entryX=0.5;entryY=0;entryDx=0;entryDy=0;exitX=0.5;exitY=1;exitDx=0;exitDy=0;strokeColor=#B09500;" parent="1" source="ic1XsGLHBiBLJPpKoA1E-39" target="7o3vYwH5cnDtXFb4_Unw-1" edge="1">
          <mxGeometry relative="1" as="geometry">
            <mxPoint x="770" y="610" as="sourcePoint" />
            <mxPoint x="980" y="600" as="targetPoint" />
          </mxGeometry>
        </mxCell>
        <mxCell id="ic1XsGLHBiBLJPpKoA1E-41" value="1" style="resizable=0;html=1;align=right;verticalAlign=bottom;fontSize=20;labelBackgroundColor=default;" parent="ic1XsGLHBiBLJPpKoA1E-40" connectable="0" vertex="1">
          <mxGeometry x="1" relative="1" as="geometry">
            <mxPoint x="4" y="-7" as="offset" />
          </mxGeometry>
        </mxCell>
        <mxCell id="ic1XsGLHBiBLJPpKoA1E-44" value="" style="shape=link;html=1;rounded=0;fontSize=26;endArrow=none;endFill=0;exitX=0.5;exitY=0;exitDx=0;exitDy=0;entryX=0.5;entryY=1;entryDx=0;entryDy=0;" parent="1" source="ic1XsGLHBiBLJPpKoA1E-39" target="ic1XsGLHBiBLJPpKoA1E-3" edge="1">
          <mxGeometry relative="1" as="geometry">
            <mxPoint x="920" y="590" as="sourcePoint" />
            <mxPoint x="1080" y="590" as="targetPoint" />
          </mxGeometry>
        </mxCell>
        <mxCell id="ic1XsGLHBiBLJPpKoA1E-45" value="N" style="resizable=0;html=1;align=right;verticalAlign=bottom;fontSize=16;labelBackgroundColor=default;" parent="ic1XsGLHBiBLJPpKoA1E-44" connectable="0" vertex="1">
          <mxGeometry x="1" relative="1" as="geometry">
            <mxPoint x="7" y="31" as="offset" />
          </mxGeometry>
        </mxCell>
        <mxCell id="ic1XsGLHBiBLJPpKoA1E-97" value="&lt;span style=&quot;font-size: 14px;&quot;&gt;ParticipatesAs&lt;/span&gt;" style="shape=rhombus;double=1;perimeter=rhombusPerimeter;whiteSpace=wrap;html=1;align=center;fontFamily=Helvetica;fontSize=21;strokeColor=#10739e;fillColor=#b1ddf0;" parent="1" vertex="1">
          <mxGeometry x="790" y="920" width="120" height="60" as="geometry" />
        </mxCell>
        <mxCell id="ic1XsGLHBiBLJPpKoA1E-102" value="" style="endArrow=none;html=1;rounded=0;fontSize=21;entryX=0.5;entryY=0;entryDx=0;entryDy=0;exitX=1;exitY=1;exitDx=0;exitDy=0;fillColor=#ffcc99;strokeColor=#B09500;" parent="1" source="7o3vYwH5cnDtXFb4_Unw-54" target="uJXrZsIrfG91avE3QK3n-4" edge="1">
          <mxGeometry relative="1" as="geometry">
            <mxPoint x="400" y="440" as="sourcePoint" />
            <mxPoint x="560" y="440" as="targetPoint" />
          </mxGeometry>
        </mxCell>
        <mxCell id="ic1XsGLHBiBLJPpKoA1E-103" value="1" style="resizable=0;html=1;align=right;verticalAlign=bottom;labelBackgroundColor=default;fontSize=20;" parent="ic1XsGLHBiBLJPpKoA1E-102" connectable="0" vertex="1">
          <mxGeometry x="1" relative="1" as="geometry">
            <mxPoint x="-168" y="-107" as="offset" />
          </mxGeometry>
        </mxCell>
        <mxCell id="ic1XsGLHBiBLJPpKoA1E-104" value="" style="shape=link;html=1;rounded=0;fontSize=21;endArrow=none;endFill=0;entryX=1;entryY=0.5;entryDx=0;entryDy=0;exitX=0;exitY=0.25;exitDx=0;exitDy=0;fillColor=#ffcc99;strokeColor=#B09500;" parent="1" source="ic1XsGLHBiBLJPpKoA1E-3" target="uJXrZsIrfG91avE3QK3n-4" edge="1">
          <mxGeometry relative="1" as="geometry">
            <mxPoint x="518.29" y="460" as="sourcePoint" />
            <mxPoint x="678.29" y="460" as="targetPoint" />
          </mxGeometry>
        </mxCell>
        <mxCell id="ic1XsGLHBiBLJPpKoA1E-105" value="N" style="resizable=0;html=1;align=right;verticalAlign=bottom;labelBackgroundColor=default;fontSize=20;" parent="ic1XsGLHBiBLJPpKoA1E-104" connectable="0" vertex="1">
          <mxGeometry x="1" relative="1" as="geometry">
            <mxPoint x="110" y="12" as="offset" />
          </mxGeometry>
        </mxCell>
        <mxCell id="ic1XsGLHBiBLJPpKoA1E-106" value="" style="shape=link;html=1;rounded=0;fontSize=21;endArrow=none;endFill=0;entryX=0;entryY=0.5;entryDx=0;entryDy=0;exitX=1;exitY=0.25;exitDx=0;exitDy=0;fillColor=#ffcc99;strokeColor=#B09500;" parent="1" source="ic1XsGLHBiBLJPpKoA1E-3" target="uJXrZsIrfG91avE3QK3n-3" edge="1">
          <mxGeometry relative="1" as="geometry">
            <mxPoint x="1300" y="429.9999999999998" as="sourcePoint" />
            <mxPoint x="1092" y="530" as="targetPoint" />
          </mxGeometry>
        </mxCell>
        <mxCell id="ic1XsGLHBiBLJPpKoA1E-107" value="N" style="resizable=0;html=1;align=right;verticalAlign=bottom;labelBackgroundColor=default;fontSize=20;rotation=0;" parent="ic1XsGLHBiBLJPpKoA1E-106" connectable="0" vertex="1">
          <mxGeometry x="1" relative="1" as="geometry">
            <mxPoint x="-84" y="13" as="offset" />
          </mxGeometry>
        </mxCell>
        <mxCell id="ic1XsGLHBiBLJPpKoA1E-108" value="" style="endArrow=none;html=1;rounded=0;fontSize=21;entryX=0.5;entryY=0;entryDx=0;entryDy=0;exitX=0;exitY=1;exitDx=0;exitDy=0;fillColor=#ffcc99;strokeColor=#B09500;" parent="1" source="7o3vYwH5cnDtXFb4_Unw-19" target="uJXrZsIrfG91avE3QK3n-3" edge="1">
          <mxGeometry relative="1" as="geometry">
            <mxPoint x="1077" y="285" as="sourcePoint" />
            <mxPoint x="1267" y="439.9999999999998" as="targetPoint" />
          </mxGeometry>
        </mxCell>
        <mxCell id="ic1XsGLHBiBLJPpKoA1E-109" value="1" style="resizable=0;html=1;align=right;verticalAlign=bottom;labelBackgroundColor=default;fontSize=20;" parent="ic1XsGLHBiBLJPpKoA1E-108" connectable="0" vertex="1">
          <mxGeometry x="1" relative="1" as="geometry">
            <mxPoint x="162" y="-111" as="offset" />
          </mxGeometry>
        </mxCell>
        <mxCell id="ic1XsGLHBiBLJPpKoA1E-192" style="edgeStyle=orthogonalEdgeStyle;rounded=0;orthogonalLoop=1;jettySize=auto;html=1;exitX=0;exitY=0.5;exitDx=0;exitDy=0;entryX=0.75;entryY=1;entryDx=0;entryDy=0;dashed=1;fontSize=22;endArrow=none;endFill=0;" parent="1" source="ic1XsGLHBiBLJPpKoA1E-116" target="7o3vYwH5cnDtXFb4_Unw-54" edge="1">
          <mxGeometry relative="1" as="geometry">
            <Array as="points">
              <mxPoint x="270" y="440" />
            </Array>
          </mxGeometry>
        </mxCell>
        <mxCell id="ic1XsGLHBiBLJPpKoA1E-116" value="ReviewsNum" style="ellipse;whiteSpace=wrap;html=1;align=center;dashed=1;rounded=0;" parent="1" vertex="1">
          <mxGeometry x="280" y="420" width="100" height="40" as="geometry" />
        </mxCell>
        <mxCell id="ic1XsGLHBiBLJPpKoA1E-193" style="edgeStyle=orthogonalEdgeStyle;rounded=0;orthogonalLoop=1;jettySize=auto;html=1;exitX=1;exitY=0.5;exitDx=0;exitDy=0;entryX=0.25;entryY=1;entryDx=0;entryDy=0;dashed=1;fontSize=22;endArrow=none;endFill=0;" parent="1" source="ic1XsGLHBiBLJPpKoA1E-118" target="7o3vYwH5cnDtXFb4_Unw-19" edge="1">
          <mxGeometry relative="1" as="geometry">
            <Array as="points">
              <mxPoint x="1373" y="440" />
            </Array>
          </mxGeometry>
        </mxCell>
        <mxCell id="ic1XsGLHBiBLJPpKoA1E-118" value="ReviewsNum" style="ellipse;whiteSpace=wrap;html=1;align=center;dashed=1;rounded=0;" parent="1" vertex="1">
          <mxGeometry x="1260" y="420" width="100" height="40" as="geometry" />
        </mxCell>
        <mxCell id="ic1XsGLHBiBLJPpKoA1E-121" style="edgeStyle=orthogonalEdgeStyle;rounded=0;orthogonalLoop=1;jettySize=auto;html=1;exitX=0;exitY=0.5;exitDx=0;exitDy=0;entryX=0.75;entryY=1;entryDx=0;entryDy=0;dashed=1;dashPattern=8 8;fontSize=21;endArrow=none;endFill=0;" parent="1" source="ic1XsGLHBiBLJPpKoA1E-120" target="7o3vYwH5cnDtXFb4_Unw-54" edge="1">
          <mxGeometry relative="1" as="geometry">
            <Array as="points">
              <mxPoint x="270" y="979" />
            </Array>
          </mxGeometry>
        </mxCell>
        <mxCell id="ic1XsGLHBiBLJPpKoA1E-120" value="PageViewsNum" style="ellipse;whiteSpace=wrap;html=1;align=center;dashed=1;" parent="1" vertex="1">
          <mxGeometry x="280" y="959" width="100" height="40" as="geometry" />
        </mxCell>
        <mxCell id="ic1XsGLHBiBLJPpKoA1E-123" style="edgeStyle=orthogonalEdgeStyle;rounded=0;orthogonalLoop=1;jettySize=auto;html=1;exitX=1;exitY=0.5;exitDx=0;exitDy=0;entryX=0.25;entryY=1;entryDx=0;entryDy=0;dashed=1;fontSize=21;endArrow=none;endFill=0;" parent="1" source="ic1XsGLHBiBLJPpKoA1E-122" target="7o3vYwH5cnDtXFb4_Unw-19" edge="1">
          <mxGeometry relative="1" as="geometry">
            <Array as="points">
              <mxPoint x="1373" y="899" />
            </Array>
          </mxGeometry>
        </mxCell>
        <mxCell id="ic1XsGLHBiBLJPpKoA1E-122" value="PageViewsNum" style="ellipse;whiteSpace=wrap;html=1;align=center;dashed=1;" parent="1" vertex="1">
          <mxGeometry x="1260" y="879" width="100" height="40" as="geometry" />
        </mxCell>
        <mxCell id="6eaYVuAnAri0T7J8yDLd-33" style="edgeStyle=orthogonalEdgeStyle;rounded=0;orthogonalLoop=1;jettySize=auto;html=1;exitX=1;exitY=0;exitDx=0;exitDy=0;entryX=0;entryY=0.5;entryDx=0;entryDy=0;fontSize=16;endArrow=none;endFill=0;" parent="1" source="ic1XsGLHBiBLJPpKoA1E-127" target="ic1XsGLHBiBLJPpKoA1E-128" edge="1">
          <mxGeometry relative="1" as="geometry" />
        </mxCell>
        <mxCell id="6eaYVuAnAri0T7J8yDLd-35" style="edgeStyle=orthogonalEdgeStyle;rounded=0;orthogonalLoop=1;jettySize=auto;html=1;exitX=0;exitY=0;exitDx=0;exitDy=0;entryX=1;entryY=0.5;entryDx=0;entryDy=0;fontSize=16;endArrow=none;endFill=0;" parent="1" source="ic1XsGLHBiBLJPpKoA1E-127" target="6eaYVuAnAri0T7J8yDLd-34" edge="1">
          <mxGeometry relative="1" as="geometry">
            <Array as="points">
              <mxPoint x="790" y="20" />
              <mxPoint x="790" y="20" />
            </Array>
          </mxGeometry>
        </mxCell>
        <mxCell id="ic1XsGLHBiBLJPpKoA1E-127" value="Critic" style="shape=ext;margin=3;double=1;whiteSpace=wrap;html=1;align=center;fontFamily=Helvetica;fontSize=14;fontColor=default;strokeColor=default;fillColor=default;" parent="1" vertex="1">
          <mxGeometry x="800" y="20" width="100" height="40" as="geometry" />
        </mxCell>
        <mxCell id="ic1XsGLHBiBLJPpKoA1E-128" value="CriticID" style="ellipse;whiteSpace=wrap;html=1;align=center;fontStyle=4;fontSize=14;rounded=0;" parent="1" vertex="1">
          <mxGeometry x="920" y="10" width="80" height="20" as="geometry" />
        </mxCell>
        <mxCell id="ic1XsGLHBiBLJPpKoA1E-138" value="" style="endArrow=none;html=1;rounded=0;fontSize=21;entryX=0.5;entryY=0;entryDx=0;entryDy=0;exitX=1;exitY=1;exitDx=0;exitDy=0;strokeColor=#B09500;" parent="1" source="NMomimD1FpmeGMdiOsrc-111" target="ic1XsGLHBiBLJPpKoA1E-140" edge="1">
          <mxGeometry relative="1" as="geometry">
            <mxPoint x="966.75" y="120.56999999999998" as="sourcePoint" />
            <mxPoint x="942.5000000000002" y="159.43000000000006" as="targetPoint" />
          </mxGeometry>
        </mxCell>
        <mxCell id="ic1XsGLHBiBLJPpKoA1E-139" value="1" style="resizable=0;html=1;align=right;verticalAlign=bottom;labelBackgroundColor=#FFFFFF;fontSize=23;" parent="ic1XsGLHBiBLJPpKoA1E-138" connectable="0" vertex="1">
          <mxGeometry x="1" relative="1" as="geometry">
            <mxPoint x="-11" y="-6" as="offset" />
          </mxGeometry>
        </mxCell>
        <mxCell id="ic1XsGLHBiBLJPpKoA1E-140" value="&lt;font style=&quot;font-size: 13px;&quot;&gt;&lt;b&gt;make&lt;/b&gt;&lt;/font&gt;" style="shape=rhombus;double=1;perimeter=rhombusPerimeter;whiteSpace=wrap;html=1;align=center;fontFamily=Helvetica;fontSize=21;strokeColor=#36393d;fillColor=#cce5ff;" parent="1" vertex="1">
          <mxGeometry x="906.63" y="164.93" width="54.75" height="50.14" as="geometry" />
        </mxCell>
        <mxCell id="ic1XsGLHBiBLJPpKoA1E-141" value="" style="shape=link;html=1;rounded=0;fontSize=21;endArrow=none;endFill=0;width=10;exitX=0.888;exitY=-0.021;exitDx=0;exitDy=0;entryX=0.379;entryY=0.92;entryDx=0;entryDy=0;entryPerimeter=0;exitPerimeter=0;strokeColor=#B09500;" parent="1" source="7o3vYwH5cnDtXFb4_Unw-17" target="ic1XsGLHBiBLJPpKoA1E-140" edge="1">
          <mxGeometry relative="1" as="geometry">
            <mxPoint x="970.25" y="247.57999999999998" as="sourcePoint" />
            <mxPoint x="936" y="217" as="targetPoint" />
          </mxGeometry>
        </mxCell>
        <mxCell id="ic1XsGLHBiBLJPpKoA1E-142" value="M" style="resizable=0;html=1;align=right;verticalAlign=bottom;labelBackgroundColor=default;fontSize=23;" parent="ic1XsGLHBiBLJPpKoA1E-141" connectable="0" vertex="1">
          <mxGeometry x="1" relative="1" as="geometry">
            <mxPoint x="-9" y="50" as="offset" />
          </mxGeometry>
        </mxCell>
        <mxCell id="ic1XsGLHBiBLJPpKoA1E-168" style="edgeStyle=orthogonalEdgeStyle;rounded=0;orthogonalLoop=1;jettySize=auto;html=1;exitX=0.5;exitY=1;exitDx=0;exitDy=0;entryX=1;entryY=0.25;entryDx=0;entryDy=0;fontSize=21;endArrow=none;endFill=0;" parent="1" source="ic1XsGLHBiBLJPpKoA1E-146" target="7o3vYwH5cnDtXFb4_Unw-17" edge="1">
          <mxGeometry relative="1" as="geometry">
            <Array as="points">
              <mxPoint x="1074" y="280" />
            </Array>
          </mxGeometry>
        </mxCell>
        <mxCell id="ic1XsGLHBiBLJPpKoA1E-146" value="Header" style="ellipse;whiteSpace=wrap;html=1;align=center;rounded=0;" parent="1" vertex="1">
          <mxGeometry x="1044" y="230" width="60" height="40" as="geometry" />
        </mxCell>
        <mxCell id="ic1XsGLHBiBLJPpKoA1E-147" value="&lt;font style=&quot;font-size: 14px;&quot;&gt;Date&lt;/font&gt;" style="ellipse;whiteSpace=wrap;html=1;align=center;rounded=0;" parent="1" vertex="1">
          <mxGeometry x="968.87" y="230" width="65.13" height="40" as="geometry" />
        </mxCell>
        <mxCell id="ic1XsGLHBiBLJPpKoA1E-169" style="edgeStyle=orthogonalEdgeStyle;rounded=0;orthogonalLoop=1;jettySize=auto;html=1;entryX=1;entryY=0.25;entryDx=0;entryDy=0;fontSize=21;endArrow=none;endFill=0;exitX=0.5;exitY=1;exitDx=0;exitDy=0;" parent="1" source="ic1XsGLHBiBLJPpKoA1E-149" target="7o3vYwH5cnDtXFb4_Unw-17" edge="1">
          <mxGeometry relative="1" as="geometry">
            <mxPoint x="1180" y="310" as="sourcePoint" />
            <Array as="points">
              <mxPoint x="1146" y="280" />
            </Array>
          </mxGeometry>
        </mxCell>
        <mxCell id="ic1XsGLHBiBLJPpKoA1E-149" value="Body" style="ellipse;whiteSpace=wrap;html=1;align=center;rounded=0;" parent="1" vertex="1">
          <mxGeometry x="1118" y="230" width="56" height="40" as="geometry" />
        </mxCell>
        <mxCell id="ic1XsGLHBiBLJPpKoA1E-151" value="&lt;font style=&quot;font-size: 14px;&quot;&gt;Spoiler&lt;/font&gt;" style="ellipse;whiteSpace=wrap;html=1;align=center;rounded=0;" parent="1" vertex="1">
          <mxGeometry x="661.25" y="230" width="67.75" height="40" as="geometry" />
        </mxCell>
        <mxCell id="ic1XsGLHBiBLJPpKoA1E-156" value="" style="endArrow=none;html=1;rounded=0;fontSize=21;entryX=0.5;entryY=0;entryDx=0;entryDy=0;exitX=0.5;exitY=1;exitDx=0;exitDy=0;strokeColor=#B09500;" parent="1" source="NMomimD1FpmeGMdiOsrc-111" target="ic1XsGLHBiBLJPpKoA1E-165" edge="1">
          <mxGeometry relative="1" as="geometry">
            <mxPoint x="890" y="150" as="sourcePoint" />
            <mxPoint x="1010" y="159" as="targetPoint" />
          </mxGeometry>
        </mxCell>
        <mxCell id="ic1XsGLHBiBLJPpKoA1E-162" value="" style="endArrow=none;html=1;rounded=0;fontSize=21;entryX=0.5;entryY=1;entryDx=0;entryDy=0;exitX=0.5;exitY=0;exitDx=0;exitDy=0;strokeColor=#B09500;" parent="1" source="7o3vYwH5cnDtXFb4_Unw-17" target="ic1XsGLHBiBLJPpKoA1E-165" edge="1">
          <mxGeometry relative="1" as="geometry">
            <mxPoint x="860" y="260" as="sourcePoint" />
            <mxPoint x="830" y="240" as="targetPoint" />
          </mxGeometry>
        </mxCell>
        <mxCell id="ic1XsGLHBiBLJPpKoA1E-163" value="M" style="resizable=0;html=1;align=right;verticalAlign=bottom;labelBackgroundColor=default;fontSize=20;" parent="ic1XsGLHBiBLJPpKoA1E-162" connectable="0" vertex="1">
          <mxGeometry x="1" relative="1" as="geometry">
            <mxPoint x="11" y="42" as="offset" />
          </mxGeometry>
        </mxCell>
        <mxCell id="sxgCxHeBCdCzxEI4LQtO-13" style="rounded=0;orthogonalLoop=1;jettySize=auto;html=1;exitX=0;exitY=0;exitDx=0;exitDy=0;entryX=1;entryY=1;entryDx=0;entryDy=0;fontSize=12;fontColor=#000000;endArrow=none;endFill=0;" parent="1" source="ic1XsGLHBiBLJPpKoA1E-165" target="xjHABAh6YXt0YLcXBF75-5" edge="1">
          <mxGeometry relative="1" as="geometry" />
        </mxCell>
        <mxCell id="ic1XsGLHBiBLJPpKoA1E-165" value="UsersVote" style="shape=rhombus;perimeter=rhombusPerimeter;whiteSpace=wrap;html=1;align=center;fontFamily=Helvetica;fontSize=14;strokeColor=#36393d;fillColor=#cce5ff;" parent="1" vertex="1">
          <mxGeometry x="800" y="160" width="100" height="60" as="geometry" />
        </mxCell>
        <mxCell id="ic1XsGLHBiBLJPpKoA1E-177" style="edgeStyle=orthogonalEdgeStyle;rounded=0;orthogonalLoop=1;jettySize=auto;html=1;exitX=0.5;exitY=1;exitDx=0;exitDy=0;entryX=0;entryY=0.25;entryDx=0;entryDy=0;dashed=1;fontSize=12;endArrow=none;endFill=0;" parent="1" source="ic1XsGLHBiBLJPpKoA1E-174" target="7o3vYwH5cnDtXFb4_Unw-17" edge="1">
          <mxGeometry relative="1" as="geometry">
            <Array as="points">
              <mxPoint x="549" y="280" />
            </Array>
          </mxGeometry>
        </mxCell>
        <mxCell id="ic1XsGLHBiBLJPpKoA1E-174" value="&lt;font style=&quot;font-size: 12px;&quot;&gt;VotesNum&lt;/font&gt;" style="ellipse;whiteSpace=wrap;html=1;align=center;dashed=1;labelBackgroundColor=default;fontSize=21;" parent="1" vertex="1">
          <mxGeometry x="516.25" y="230" width="62.75" height="40" as="geometry" />
        </mxCell>
        <mxCell id="ic1XsGLHBiBLJPpKoA1E-173" value="&lt;font style=&quot;font-size: 12px;&quot;&gt;VotesPlus&lt;/font&gt;" style="ellipse;whiteSpace=wrap;html=1;align=center;dashed=1;labelBackgroundColor=default;fontSize=21;" parent="1" vertex="1">
          <mxGeometry x="591.75" y="230" width="60" height="40" as="geometry" />
        </mxCell>
        <mxCell id="ic1XsGLHBiBLJPpKoA1E-178" value="&lt;font style=&quot;font-size: 14px;&quot;&gt;&lt;b&gt;has&lt;/b&gt;&lt;/font&gt;" style="shape=rhombus;double=1;perimeter=rhombusPerimeter;whiteSpace=wrap;html=1;align=center;fontFamily=Helvetica;fontSize=12;strokeColor=#10739e;fillColor=#b1ddf0;" parent="1" vertex="1">
          <mxGeometry x="380" y="270" width="80" height="60" as="geometry" />
        </mxCell>
        <mxCell id="ic1XsGLHBiBLJPpKoA1E-179" value="&lt;font style=&quot;font-size: 14px;&quot;&gt;&lt;b&gt;has&lt;/b&gt;&lt;/font&gt;" style="shape=rhombus;double=1;perimeter=rhombusPerimeter;whiteSpace=wrap;html=1;align=center;fontFamily=Helvetica;fontSize=12;strokeColor=#10739e;fillColor=#b1ddf0;" parent="1" vertex="1">
          <mxGeometry x="1200" y="270" width="80" height="60" as="geometry" />
        </mxCell>
        <mxCell id="ic1XsGLHBiBLJPpKoA1E-180" value="" style="endArrow=none;html=1;rounded=0;fontSize=12;entryX=0;entryY=0.5;entryDx=0;entryDy=0;exitX=1;exitY=0;exitDx=0;exitDy=0;fillColor=#ffcc99;strokeColor=#B09500;" parent="1" source="7o3vYwH5cnDtXFb4_Unw-54" target="ic1XsGLHBiBLJPpKoA1E-178" edge="1">
          <mxGeometry relative="1" as="geometry">
            <mxPoint x="412.04" y="349.38" as="sourcePoint" />
            <mxPoint x="572.04" y="349.38" as="targetPoint" />
          </mxGeometry>
        </mxCell>
        <mxCell id="ic1XsGLHBiBLJPpKoA1E-181" value="1" style="resizable=0;html=1;align=right;verticalAlign=bottom;labelBackgroundColor=default;fontSize=20;" parent="ic1XsGLHBiBLJPpKoA1E-180" connectable="0" vertex="1">
          <mxGeometry x="1" relative="1" as="geometry">
            <mxPoint x="-29" y="20" as="offset" />
          </mxGeometry>
        </mxCell>
        <mxCell id="ic1XsGLHBiBLJPpKoA1E-183" value="" style="endArrow=none;html=1;rounded=0;fontSize=12;entryX=1;entryY=0.5;entryDx=0;entryDy=0;exitX=0;exitY=0;exitDx=0;exitDy=0;fillColor=#ffcc99;strokeColor=#B09500;" parent="1" source="7o3vYwH5cnDtXFb4_Unw-19" target="ic1XsGLHBiBLJPpKoA1E-179" edge="1">
          <mxGeometry relative="1" as="geometry">
            <mxPoint x="1077" y="390" as="sourcePoint" />
            <mxPoint x="1237" y="360" as="targetPoint" />
          </mxGeometry>
        </mxCell>
        <mxCell id="ic1XsGLHBiBLJPpKoA1E-184" value="1" style="resizable=0;html=1;align=right;verticalAlign=bottom;labelBackgroundColor=default;fontSize=20;" parent="ic1XsGLHBiBLJPpKoA1E-183" connectable="0" vertex="1">
          <mxGeometry x="1" relative="1" as="geometry">
            <mxPoint x="34" y="21" as="offset" />
          </mxGeometry>
        </mxCell>
        <mxCell id="ic1XsGLHBiBLJPpKoA1E-185" value="" style="shape=link;html=1;rounded=0;fontSize=22;endArrow=none;endFill=0;entryX=1;entryY=0.5;entryDx=0;entryDy=0;exitX=0;exitY=0.75;exitDx=0;exitDy=0;width=10;fillColor=#ffcc99;strokeColor=#B09500;" parent="1" source="7o3vYwH5cnDtXFb4_Unw-17" target="ic1XsGLHBiBLJPpKoA1E-178" edge="1">
          <mxGeometry relative="1" as="geometry">
            <mxPoint x="467.62" y="328.75" as="sourcePoint" />
            <mxPoint x="627.62" y="328.75" as="targetPoint" />
          </mxGeometry>
        </mxCell>
        <mxCell id="ic1XsGLHBiBLJPpKoA1E-186" value="N" style="resizable=0;html=1;align=right;verticalAlign=bottom;labelBackgroundColor=default;fontSize=20;" parent="ic1XsGLHBiBLJPpKoA1E-185" connectable="0" vertex="1">
          <mxGeometry x="1" relative="1" as="geometry">
            <mxPoint x="169" y="10" as="offset" />
          </mxGeometry>
        </mxCell>
        <mxCell id="ic1XsGLHBiBLJPpKoA1E-187" value="" style="shape=link;html=1;rounded=0;fontSize=22;endArrow=none;endFill=0;entryX=0;entryY=0.5;entryDx=0;entryDy=0;exitX=1;exitY=0.75;exitDx=0;exitDy=0;width=10;fillColor=#e3c800;strokeColor=#B09500;" parent="1" source="7o3vYwH5cnDtXFb4_Unw-17" target="ic1XsGLHBiBLJPpKoA1E-179" edge="1">
          <mxGeometry relative="1" as="geometry">
            <mxPoint x="843" y="380" as="sourcePoint" />
            <mxPoint x="513" y="380" as="targetPoint" />
          </mxGeometry>
        </mxCell>
        <mxCell id="ic1XsGLHBiBLJPpKoA1E-188" value="N" style="resizable=0;html=1;align=right;verticalAlign=bottom;labelBackgroundColor=default;fontSize=20;" parent="ic1XsGLHBiBLJPpKoA1E-187" connectable="0" vertex="1">
          <mxGeometry x="1" relative="1" as="geometry">
            <mxPoint x="-140" y="10" as="offset" />
          </mxGeometry>
        </mxCell>
        <mxCell id="ic1XsGLHBiBLJPpKoA1E-190" style="edgeStyle=orthogonalEdgeStyle;rounded=0;orthogonalLoop=1;jettySize=auto;html=1;exitX=0;exitY=0.5;exitDx=0;exitDy=0;entryX=0.75;entryY=0;entryDx=0;entryDy=0;fontSize=22;endArrow=none;endFill=0;dashed=1;" parent="1" source="ic1XsGLHBiBLJPpKoA1E-189" target="7o3vYwH5cnDtXFb4_Unw-54" edge="1">
          <mxGeometry relative="1" as="geometry">
            <Array as="points">
              <mxPoint x="270" y="260" />
            </Array>
          </mxGeometry>
        </mxCell>
        <mxCell id="ic1XsGLHBiBLJPpKoA1E-189" value="AwardNominNum" style="ellipse;whiteSpace=wrap;html=1;align=center;dashed=1;" parent="1" vertex="1">
          <mxGeometry x="280" y="240" width="100" height="40" as="geometry" />
        </mxCell>
        <mxCell id="ic1XsGLHBiBLJPpKoA1E-195" style="edgeStyle=orthogonalEdgeStyle;rounded=0;orthogonalLoop=1;jettySize=auto;html=1;exitX=1;exitY=0.5;exitDx=0;exitDy=0;entryX=0.25;entryY=0;entryDx=0;entryDy=0;dashed=1;fontSize=22;endArrow=none;endFill=0;" parent="1" source="ic1XsGLHBiBLJPpKoA1E-194" target="7o3vYwH5cnDtXFb4_Unw-19" edge="1">
          <mxGeometry relative="1" as="geometry">
            <Array as="points">
              <mxPoint x="1373" y="260" />
            </Array>
          </mxGeometry>
        </mxCell>
        <mxCell id="ic1XsGLHBiBLJPpKoA1E-194" value="AwardNominNum" style="ellipse;whiteSpace=wrap;html=1;align=center;dashed=1;" parent="1" vertex="1">
          <mxGeometry x="1260" y="240" width="100" height="40" as="geometry" />
        </mxCell>
        <mxCell id="ic1XsGLHBiBLJPpKoA1E-203" style="edgeStyle=orthogonalEdgeStyle;rounded=0;orthogonalLoop=1;jettySize=auto;html=1;exitX=1;exitY=0.5;exitDx=0;exitDy=0;entryX=0;entryY=0;entryDx=0;entryDy=0;dashed=1;fontSize=14;endArrow=none;endFill=0;" parent="1" source="ic1XsGLHBiBLJPpKoA1E-200" target="7o3vYwH5cnDtXFb4_Unw-54" edge="1">
          <mxGeometry relative="1" as="geometry">
            <Array as="points">
              <mxPoint x="160" y="260" />
              <mxPoint x="160" y="320" />
            </Array>
          </mxGeometry>
        </mxCell>
        <mxCell id="ic1XsGLHBiBLJPpKoA1E-200" value="TopRatedTv" style="ellipse;whiteSpace=wrap;html=1;align=center;dashed=1;labelBackgroundColor=default;fontSize=14;" parent="1" vertex="1">
          <mxGeometry x="40" y="240" width="100" height="40" as="geometry" />
        </mxCell>
        <mxCell id="ic1XsGLHBiBLJPpKoA1E-202" style="edgeStyle=orthogonalEdgeStyle;rounded=0;orthogonalLoop=1;jettySize=auto;html=1;exitX=0;exitY=0.5;exitDx=0;exitDy=0;entryX=1;entryY=0;entryDx=0;entryDy=0;fontSize=14;endArrow=none;endFill=0;dashed=1;" parent="1" target="7o3vYwH5cnDtXFb4_Unw-19" edge="1">
          <mxGeometry relative="1" as="geometry">
            <mxPoint x="1506" y="260" as="sourcePoint" />
            <mxPoint x="1466" y="320" as="targetPoint" />
            <Array as="points">
              <mxPoint x="1483" y="260" />
              <mxPoint x="1483" y="320" />
            </Array>
          </mxGeometry>
        </mxCell>
        <mxCell id="ic1XsGLHBiBLJPpKoA1E-201" value="TopRatedTv" style="ellipse;whiteSpace=wrap;html=1;align=center;dashed=1;labelBackgroundColor=default;fontSize=14;" parent="1" vertex="1">
          <mxGeometry x="1503" y="240" width="100" height="40" as="geometry" />
        </mxCell>
        <mxCell id="aydGBalb8Axwh5jU23Co-12" style="edgeStyle=orthogonalEdgeStyle;rounded=0;orthogonalLoop=1;jettySize=auto;html=1;exitX=0;exitY=0.5;exitDx=0;exitDy=0;entryX=1;entryY=0.5;entryDx=0;entryDy=0;fontSize=13;endArrow=none;endFill=0;" parent="1" edge="1">
          <mxGeometry relative="1" as="geometry">
            <mxPoint x="545.29" y="718" as="sourcePoint" />
            <mxPoint x="516.25" y="659" as="targetPoint" />
            <Array as="points">
              <mxPoint x="536" y="718" />
              <mxPoint x="536" y="659" />
            </Array>
          </mxGeometry>
        </mxCell>
        <mxCell id="aydGBalb8Axwh5jU23Co-16" style="edgeStyle=orthogonalEdgeStyle;rounded=0;orthogonalLoop=1;jettySize=auto;html=1;exitX=0.5;exitY=1;exitDx=0;exitDy=0;entryX=0.5;entryY=0;entryDx=0;entryDy=0;fontSize=13;endArrow=none;endFill=0;" parent="1" source="ic1XsGLHBiBLJPpKoA1E-206" target="ic1XsGLHBiBLJPpKoA1E-212" edge="1">
          <mxGeometry relative="1" as="geometry" />
        </mxCell>
        <mxCell id="ic1XsGLHBiBLJPpKoA1E-206" value="PicOrVidURL" style="whiteSpace=wrap;html=1;align=center;labelBackgroundColor=default;fontSize=14;" parent="1" vertex="1">
          <mxGeometry x="545.29" y="698" width="100" height="40" as="geometry" />
        </mxCell>
        <mxCell id="ic1XsGLHBiBLJPpKoA1E-212" value="&lt;font style=&quot;font-size: 12px;&quot;&gt;PicOrVidURLID&lt;/font&gt;" style="ellipse;whiteSpace=wrap;html=1;align=center;fontStyle=4;labelBackgroundColor=default;fontSize=14;" parent="1" vertex="1">
          <mxGeometry x="545.29" y="750" width="100" height="40" as="geometry" />
        </mxCell>
        <mxCell id="ic1XsGLHBiBLJPpKoA1E-213" value="Comment" style="ellipse;whiteSpace=wrap;html=1;align=center;rounded=0;" parent="1" vertex="1">
          <mxGeometry x="436.25" y="639" width="80" height="40" as="geometry" />
        </mxCell>
        <mxCell id="aydGBalb8Axwh5jU23Co-13" style="edgeStyle=orthogonalEdgeStyle;rounded=0;orthogonalLoop=1;jettySize=auto;html=1;exitX=1;exitY=0.5;exitDx=0;exitDy=0;entryX=0;entryY=0.5;entryDx=0;entryDy=0;fontSize=13;endArrow=none;endFill=0;" parent="1" source="ic1XsGLHBiBLJPpKoA1E-215" target="ic1XsGLHBiBLJPpKoA1E-206" edge="1">
          <mxGeometry relative="1" as="geometry" />
        </mxCell>
        <mxCell id="ic1XsGLHBiBLJPpKoA1E-215" value="URL" style="ellipse;whiteSpace=wrap;html=1;align=center;rounded=0;" parent="1" vertex="1">
          <mxGeometry x="436.25" y="698" width="80" height="40" as="geometry" />
        </mxCell>
        <mxCell id="aydGBalb8Axwh5jU23Co-15" style="edgeStyle=orthogonalEdgeStyle;rounded=0;orthogonalLoop=1;jettySize=auto;html=1;exitX=1;exitY=0.5;exitDx=0;exitDy=0;entryX=0;entryY=0.5;entryDx=0;entryDy=0;fontSize=13;endArrow=none;endFill=0;" parent="1" source="ic1XsGLHBiBLJPpKoA1E-216" target="ic1XsGLHBiBLJPpKoA1E-206" edge="1">
          <mxGeometry relative="1" as="geometry">
            <Array as="points">
              <mxPoint x="536" y="772" />
              <mxPoint x="536" y="718" />
            </Array>
          </mxGeometry>
        </mxCell>
        <mxCell id="ic1XsGLHBiBLJPpKoA1E-216" value="IsItPicOrVid" style="ellipse;whiteSpace=wrap;html=1;align=center;rounded=0;" parent="1" vertex="1">
          <mxGeometry x="436.25" y="752" width="80" height="40" as="geometry" />
        </mxCell>
        <mxCell id="ic1XsGLHBiBLJPpKoA1E-224" style="rounded=0;orthogonalLoop=1;jettySize=auto;html=1;exitX=0;exitY=0;exitDx=0;exitDy=0;entryX=1;entryY=1;entryDx=0;entryDy=0;fontSize=12;endArrow=none;endFill=0;dashed=1;" parent="1" source="ic1XsGLHBiBLJPpKoA1E-222" target="7o3vYwH5cnDtXFb4_Unw-1" edge="1">
          <mxGeometry relative="1" as="geometry" />
        </mxCell>
        <mxCell id="ic1XsGLHBiBLJPpKoA1E-222" value="PicNum" style="ellipse;whiteSpace=wrap;html=1;align=center;dashed=1;labelBackgroundColor=default;fontSize=12;" parent="1" vertex="1">
          <mxGeometry x="903.75" y="750" width="68" height="40" as="geometry" />
        </mxCell>
        <mxCell id="ic1XsGLHBiBLJPpKoA1E-225" style="edgeStyle=none;rounded=0;orthogonalLoop=1;jettySize=auto;html=1;exitX=0;exitY=1;exitDx=0;exitDy=0;entryX=1;entryY=0;entryDx=0;entryDy=0;dashed=1;fontSize=12;endArrow=none;endFill=0;" parent="1" source="ic1XsGLHBiBLJPpKoA1E-223" target="7o3vYwH5cnDtXFb4_Unw-1" edge="1">
          <mxGeometry relative="1" as="geometry" />
        </mxCell>
        <mxCell id="ic1XsGLHBiBLJPpKoA1E-223" value="VidNum" style="ellipse;whiteSpace=wrap;html=1;align=center;dashed=1;labelBackgroundColor=default;fontSize=12;" parent="1" vertex="1">
          <mxGeometry x="903.75" y="649" width="68" height="40" as="geometry" />
        </mxCell>
        <mxCell id="puiFlrzKT8CEFiVwOP3T-10" style="edgeStyle=orthogonalEdgeStyle;rounded=0;orthogonalLoop=1;jettySize=auto;html=1;exitX=0.5;exitY=1;exitDx=0;exitDy=0;entryX=0.25;entryY=1;entryDx=0;entryDy=0;fontSize=12;endArrow=none;endFill=0;dashed=1;" parent="1" source="ic1XsGLHBiBLJPpKoA1E-233" target="7o3vYwH5cnDtXFb4_Unw-1" edge="1">
          <mxGeometry relative="1" as="geometry">
            <Array as="points">
              <mxPoint x="708" y="870" />
              <mxPoint x="820" y="870" />
            </Array>
          </mxGeometry>
        </mxCell>
        <mxCell id="ic1XsGLHBiBLJPpKoA1E-233" value="Top3Job" style="ellipse;whiteSpace=wrap;html=1;align=center;dashed=1;labelBackgroundColor=default;fontSize=12;" parent="1" vertex="1">
          <mxGeometry x="658.29" y="814" width="100" height="40" as="geometry" />
        </mxCell>
        <mxCell id="puiFlrzKT8CEFiVwOP3T-13" style="edgeStyle=orthogonalEdgeStyle;rounded=0;orthogonalLoop=1;jettySize=auto;html=1;exitX=0.5;exitY=0;exitDx=0;exitDy=0;entryX=0.25;entryY=1;entryDx=0;entryDy=0;dashed=1;fontSize=12;endArrow=none;endFill=0;" parent="1" source="ic1XsGLHBiBLJPpKoA1E-234" target="7o3vYwH5cnDtXFb4_Unw-1" edge="1">
          <mxGeometry relative="1" as="geometry">
            <Array as="points">
              <mxPoint x="597" y="870" />
              <mxPoint x="820" y="870" />
            </Array>
          </mxGeometry>
        </mxCell>
        <mxCell id="ic1XsGLHBiBLJPpKoA1E-234" value="Top2Job" style="ellipse;whiteSpace=wrap;html=1;align=center;dashed=1;labelBackgroundColor=default;fontSize=12;" parent="1" vertex="1">
          <mxGeometry x="546.64" y="890" width="100" height="40" as="geometry" />
        </mxCell>
        <mxCell id="puiFlrzKT8CEFiVwOP3T-12" style="edgeStyle=orthogonalEdgeStyle;rounded=0;orthogonalLoop=1;jettySize=auto;html=1;exitX=0.5;exitY=1;exitDx=0;exitDy=0;entryX=0.25;entryY=1;entryDx=0;entryDy=0;dashed=1;fontSize=12;endArrow=none;endFill=0;" parent="1" source="ic1XsGLHBiBLJPpKoA1E-235" target="7o3vYwH5cnDtXFb4_Unw-1" edge="1">
          <mxGeometry relative="1" as="geometry">
            <Array as="points">
              <mxPoint x="597" y="870" />
              <mxPoint x="820" y="870" />
            </Array>
          </mxGeometry>
        </mxCell>
        <mxCell id="ic1XsGLHBiBLJPpKoA1E-235" value="Top1Job" style="ellipse;whiteSpace=wrap;html=1;align=center;dashed=1;labelBackgroundColor=default;fontSize=12;" parent="1" vertex="1">
          <mxGeometry x="546.64" y="814" width="100" height="40" as="geometry" />
        </mxCell>
        <mxCell id="ic1XsGLHBiBLJPpKoA1E-249" value="Job" style="shape=ext;margin=3;double=1;whiteSpace=wrap;html=1;align=center;fontFamily=Helvetica;fontSize=14;fontColor=default;strokeColor=default;fillColor=default;" parent="1" vertex="1">
          <mxGeometry x="955" y="1025" width="100" height="30" as="geometry" />
        </mxCell>
        <mxCell id="ic1XsGLHBiBLJPpKoA1E-251" value="" style="shape=link;html=1;rounded=0;fontSize=12;endArrow=none;endFill=0;entryX=1;entryY=0.5;entryDx=0;entryDy=0;exitX=0;exitY=0.5;exitDx=0;exitDy=0;" parent="1" source="59hTg4i9WxtJLP-nNg0J-58" target="ic1XsGLHBiBLJPpKoA1E-249" edge="1">
          <mxGeometry relative="1" as="geometry">
            <mxPoint x="1010" y="950" as="sourcePoint" />
            <mxPoint x="1144.87" y="978.47" as="targetPoint" />
          </mxGeometry>
        </mxCell>
        <mxCell id="ic1XsGLHBiBLJPpKoA1E-252" value="N" style="resizable=0;html=1;align=right;verticalAlign=bottom;labelBackgroundColor=default;fontSize=20;" parent="ic1XsGLHBiBLJPpKoA1E-251" connectable="0" vertex="1">
          <mxGeometry x="1" relative="1" as="geometry">
            <mxPoint x="31" y="14" as="offset" />
          </mxGeometry>
        </mxCell>
        <mxCell id="ic1XsGLHBiBLJPpKoA1E-253" value="" style="endArrow=none;html=1;rounded=0;fontSize=12;exitX=0;exitY=0.5;exitDx=0;exitDy=0;entryX=1;entryY=0.5;entryDx=0;entryDy=0;" parent="1" source="59hTg4i9WxtJLP-nNg0J-53" target="59hTg4i9WxtJLP-nNg0J-58" edge="1">
          <mxGeometry relative="1" as="geometry">
            <mxPoint x="1006" y="960" as="sourcePoint" />
            <mxPoint x="1187" y="1040" as="targetPoint" />
          </mxGeometry>
        </mxCell>
        <mxCell id="ic1XsGLHBiBLJPpKoA1E-254" value="1" style="resizable=0;html=1;align=right;verticalAlign=bottom;labelBackgroundColor=default;fontSize=20;" parent="ic1XsGLHBiBLJPpKoA1E-253" connectable="0" vertex="1">
          <mxGeometry x="1" relative="1" as="geometry">
            <mxPoint x="18" y="14" as="offset" />
          </mxGeometry>
        </mxCell>
        <mxCell id="KhHhmspxeSsIz6SWaP1c-13" style="edgeStyle=orthogonalEdgeStyle;rounded=0;orthogonalLoop=1;jettySize=auto;html=1;exitX=0.5;exitY=1;exitDx=0;exitDy=0;entryX=0.5;entryY=0;entryDx=0;entryDy=0;endArrow=none;endFill=0;" parent="1" source="ic1XsGLHBiBLJPpKoA1E-255" target="ic1XsGLHBiBLJPpKoA1E-249" edge="1">
          <mxGeometry relative="1" as="geometry" />
        </mxCell>
        <mxCell id="ic1XsGLHBiBLJPpKoA1E-255" value="&lt;font style=&quot;font-size: 12px;&quot;&gt;JobID&lt;/font&gt;" style="ellipse;whiteSpace=wrap;html=1;align=center;fontStyle=4;fontSize=14;" parent="1" vertex="1">
          <mxGeometry x="985" y="959" width="40" height="40" as="geometry" />
        </mxCell>
        <mxCell id="KhHhmspxeSsIz6SWaP1c-17" style="edgeStyle=orthogonalEdgeStyle;rounded=0;orthogonalLoop=1;jettySize=auto;html=1;exitX=0.5;exitY=1;exitDx=0;exitDy=0;entryX=0.5;entryY=0;entryDx=0;entryDy=0;endArrow=none;endFill=0;" parent="1" source="ic1XsGLHBiBLJPpKoA1E-258" target="ic1XsGLHBiBLJPpKoA1E-249" edge="1">
          <mxGeometry relative="1" as="geometry">
            <Array as="points">
              <mxPoint x="1070" y="1005" />
              <mxPoint x="1005" y="1005" />
            </Array>
          </mxGeometry>
        </mxCell>
        <mxCell id="ic1XsGLHBiBLJPpKoA1E-258" value="StarOrNot" style="ellipse;whiteSpace=wrap;html=1;align=center;rounded=0;" parent="1" vertex="1">
          <mxGeometry x="1030" y="959" width="80" height="40" as="geometry" />
        </mxCell>
        <mxCell id="KhHhmspxeSsIz6SWaP1c-16" style="edgeStyle=orthogonalEdgeStyle;rounded=0;orthogonalLoop=1;jettySize=auto;html=1;exitX=0.5;exitY=1;exitDx=0;exitDy=0;entryX=0.5;entryY=0;entryDx=0;entryDy=0;endArrow=none;endFill=0;" parent="1" source="ic1XsGLHBiBLJPpKoA1E-259" target="ic1XsGLHBiBLJPpKoA1E-249" edge="1">
          <mxGeometry relative="1" as="geometry">
            <Array as="points">
              <mxPoint x="938" y="1005" />
              <mxPoint x="1005" y="1005" />
            </Array>
          </mxGeometry>
        </mxCell>
        <mxCell id="ic1XsGLHBiBLJPpKoA1E-259" value="Role" style="ellipse;whiteSpace=wrap;html=1;align=center;rounded=0;" parent="1" vertex="1">
          <mxGeometry x="898" y="959" width="79.5" height="40" as="geometry" />
        </mxCell>
        <mxCell id="ic1XsGLHBiBLJPpKoA1E-263" value="&lt;p style=&quot;line-height: 160%;&quot;&gt;&lt;font size=&quot;1&quot; style=&quot;&quot;&gt;&lt;b style=&quot;&quot;&gt;RoleOnlyAvailableWhenActor&lt;/b&gt;&lt;/font&gt;&lt;/p&gt;" style="shape=note;whiteSpace=wrap;html=1;backgroundOutline=1;darkOpacity=0.05;fontSize=14;align=left;" parent="1" vertex="1">
          <mxGeometry x="955" y="1080" width="176" height="33" as="geometry" />
        </mxCell>
        <mxCell id="xN0LtOnhOd4wuew9kPdN-2" style="edgeStyle=orthogonalEdgeStyle;rounded=0;orthogonalLoop=1;jettySize=auto;html=1;exitX=0.5;exitY=1;exitDx=0;exitDy=0;entryX=0.25;entryY=0;entryDx=0;entryDy=0;endArrow=none;endFill=0;" parent="1" source="ic1XsGLHBiBLJPpKoA1E-264" target="59hTg4i9WxtJLP-nNg0J-22" edge="1">
          <mxGeometry relative="1" as="geometry">
            <Array as="points">
              <mxPoint x="708" y="1080" />
              <mxPoint x="821" y="1080" />
            </Array>
          </mxGeometry>
        </mxCell>
        <mxCell id="ic1XsGLHBiBLJPpKoA1E-264" value="MovieOrSeries" style="ellipse;whiteSpace=wrap;html=1;align=center;labelBackgroundColor=default;fontSize=13;" parent="1" vertex="1">
          <mxGeometry x="658.29" y="1020" width="100" height="40" as="geometry" />
        </mxCell>
        <mxCell id="KhHhmspxeSsIz6SWaP1c-18" style="rounded=0;orthogonalLoop=1;jettySize=auto;html=1;exitX=0;exitY=1;exitDx=0;exitDy=0;entryX=1;entryY=0;entryDx=0;entryDy=0;endArrow=none;endFill=0;" parent="1" source="ic1XsGLHBiBLJPpKoA1E-265" target="ic1XsGLHBiBLJPpKoA1E-249" edge="1">
          <mxGeometry relative="1" as="geometry" />
        </mxCell>
        <mxCell id="ic1XsGLHBiBLJPpKoA1E-265" value="Description" style="ellipse;whiteSpace=wrap;html=1;align=center;rounded=0;" parent="1" vertex="1">
          <mxGeometry x="1120" y="959" width="65.5" height="40" as="geometry" />
        </mxCell>
        <mxCell id="ic1XsGLHBiBLJPpKoA1E-267" value="have" style="shape=rhombus;double=1;perimeter=rhombusPerimeter;whiteSpace=wrap;html=1;align=center;labelBackgroundColor=default;fontSize=13;" parent="1" vertex="1">
          <mxGeometry x="868.5" y="1020" width="60" height="40" as="geometry" />
        </mxCell>
        <mxCell id="ic1XsGLHBiBLJPpKoA1E-268" value="" style="shape=link;html=1;rounded=0;fontSize=13;endArrow=none;endFill=0;entryX=1;entryY=0.5;entryDx=0;entryDy=0;exitX=0;exitY=0.5;exitDx=0;exitDy=0;" parent="1" source="ic1XsGLHBiBLJPpKoA1E-249" target="ic1XsGLHBiBLJPpKoA1E-267" edge="1">
          <mxGeometry relative="1" as="geometry">
            <mxPoint x="767" y="1096.07" as="sourcePoint" />
            <mxPoint x="927" y="1096.07" as="targetPoint" />
          </mxGeometry>
        </mxCell>
        <mxCell id="ic1XsGLHBiBLJPpKoA1E-269" value="N" style="resizable=0;html=1;align=right;verticalAlign=bottom;labelBackgroundColor=default;fontSize=20;" parent="ic1XsGLHBiBLJPpKoA1E-268" connectable="0" vertex="1">
          <mxGeometry x="1" relative="1" as="geometry">
            <mxPoint x="20" y="14" as="offset" />
          </mxGeometry>
        </mxCell>
        <mxCell id="ic1XsGLHBiBLJPpKoA1E-270" value="" style="endArrow=none;html=1;rounded=0;fontSize=13;entryX=0.5;entryY=1;entryDx=0;entryDy=0;exitX=0.898;exitY=-0.005;exitDx=0;exitDy=0;exitPerimeter=0;" parent="1" source="59hTg4i9WxtJLP-nNg0J-22" target="ic1XsGLHBiBLJPpKoA1E-267" edge="1">
          <mxGeometry relative="1" as="geometry">
            <mxPoint x="880" y="1090" as="sourcePoint" />
            <mxPoint x="860" y="1090" as="targetPoint" />
          </mxGeometry>
        </mxCell>
        <mxCell id="ic1XsGLHBiBLJPpKoA1E-271" value="1" style="resizable=0;html=1;align=right;verticalAlign=bottom;labelBackgroundColor=default;fontSize=13;" parent="ic1XsGLHBiBLJPpKoA1E-270" connectable="0" vertex="1">
          <mxGeometry x="1" relative="1" as="geometry">
            <mxPoint x="4" y="33" as="offset" />
          </mxGeometry>
        </mxCell>
        <mxCell id="UphBaBHZt3aJ2YWvEUYI-3" value="" style="endArrow=none;html=1;rounded=0;fontSize=16;exitX=0.5;exitY=1;exitDx=0;exitDy=0;entryX=0.5;entryY=0;entryDx=0;entryDy=0;strokeColor=#B09500;" parent="1" source="7o3vYwH5cnDtXFb4_Unw-1" target="ic1XsGLHBiBLJPpKoA1E-97" edge="1">
          <mxGeometry relative="1" as="geometry">
            <mxPoint x="690" y="850" as="sourcePoint" />
            <mxPoint x="850" y="850" as="targetPoint" />
          </mxGeometry>
        </mxCell>
        <mxCell id="UphBaBHZt3aJ2YWvEUYI-4" value="1" style="resizable=0;html=1;align=right;verticalAlign=bottom;fontSize=20;labelBackgroundColor=default;" parent="UphBaBHZt3aJ2YWvEUYI-3" connectable="0" vertex="1">
          <mxGeometry x="1" relative="1" as="geometry">
            <mxPoint x="5" y="-40" as="offset" />
          </mxGeometry>
        </mxCell>
        <mxCell id="UphBaBHZt3aJ2YWvEUYI-5" value="" style="shape=link;html=1;rounded=0;fontSize=16;exitX=0.5;exitY=1;exitDx=0;exitDy=0;entryX=0.5;entryY=0;entryDx=0;entryDy=0;" parent="1" source="ic1XsGLHBiBLJPpKoA1E-97" target="59hTg4i9WxtJLP-nNg0J-22" edge="1">
          <mxGeometry relative="1" as="geometry">
            <mxPoint x="667" y="998" as="sourcePoint" />
            <mxPoint x="830" y="1070" as="targetPoint" />
          </mxGeometry>
        </mxCell>
        <mxCell id="UphBaBHZt3aJ2YWvEUYI-6" value="M" style="resizable=0;html=1;align=left;verticalAlign=bottom;fontSize=24;labelBackgroundColor=default;" parent="UphBaBHZt3aJ2YWvEUYI-5" connectable="0" vertex="1">
          <mxGeometry x="-1" relative="1" as="geometry">
            <mxPoint x="-11" y="72" as="offset" />
          </mxGeometry>
        </mxCell>
        <mxCell id="sa_86HW9bSHmPmkgzG64-1" value="Academy&lt;br&gt;award(bool)" style="ellipse;whiteSpace=wrap;html=1;align=center;" parent="1" vertex="1">
          <mxGeometry x="698" y="440" width="100" height="40" as="geometry" />
        </mxCell>
        <mxCell id="sa_86HW9bSHmPmkgzG64-11" style="edgeStyle=orthogonalEdgeStyle;rounded=0;orthogonalLoop=1;jettySize=auto;html=1;exitX=0.5;exitY=1;exitDx=0;exitDy=0;entryX=1;entryY=0;entryDx=0;entryDy=0;endArrow=none;endFill=0;" parent="1" source="sa_86HW9bSHmPmkgzG64-5" target="ic1XsGLHBiBLJPpKoA1E-3" edge="1">
          <mxGeometry relative="1" as="geometry" />
        </mxCell>
        <mxCell id="sa_86HW9bSHmPmkgzG64-5" value="Golden&lt;br&gt;Globe(bool)" style="ellipse;whiteSpace=wrap;html=1;align=center;" parent="1" vertex="1">
          <mxGeometry x="900" y="439" width="100" height="40" as="geometry" />
        </mxCell>
        <mxCell id="sxgCxHeBCdCzxEI4LQtO-16" style="edgeStyle=none;rounded=0;orthogonalLoop=1;jettySize=auto;html=1;exitX=1;exitY=0.5;exitDx=0;exitDy=0;entryX=0;entryY=0.5;entryDx=0;entryDy=0;fontSize=12;fontColor=#000000;endArrow=none;endFill=0;" parent="1" source="sa_86HW9bSHmPmkgzG64-7" target="nW7b6mAZJRJHVCDWe1-h-6" edge="1">
          <mxGeometry relative="1" as="geometry" />
        </mxCell>
        <mxCell id="sa_86HW9bSHmPmkgzG64-7" value="GoldenGlobe&lt;br&gt;Titles" style="whiteSpace=wrap;html=1;align=center;" parent="1" vertex="1">
          <mxGeometry x="966" y="378" width="100" height="40" as="geometry" />
        </mxCell>
        <mxCell id="nW7b6mAZJRJHVCDWe1-h-14" style="edgeStyle=orthogonalEdgeStyle;rounded=0;orthogonalLoop=1;jettySize=auto;html=1;exitX=0.5;exitY=1;exitDx=0;exitDy=0;entryX=1;entryY=0.5;entryDx=0;entryDy=0;endArrow=none;endFill=0;" parent="1" source="sa_86HW9bSHmPmkgzG64-8" edge="1">
          <mxGeometry relative="1" as="geometry">
            <mxPoint x="607.8799999999924" y="459" as="targetPoint" />
          </mxGeometry>
        </mxCell>
        <mxCell id="sxgCxHeBCdCzxEI4LQtO-15" style="edgeStyle=none;rounded=0;orthogonalLoop=1;jettySize=auto;html=1;exitX=0;exitY=0.5;exitDx=0;exitDy=0;entryX=1;entryY=0.5;entryDx=0;entryDy=0;fontSize=12;fontColor=#000000;endArrow=none;endFill=0;" parent="1" source="sa_86HW9bSHmPmkgzG64-8" target="nW7b6mAZJRJHVCDWe1-h-11" edge="1">
          <mxGeometry relative="1" as="geometry" />
        </mxCell>
        <mxCell id="sa_86HW9bSHmPmkgzG64-8" value="Academy Aw.&lt;br&gt;Titles" style="whiteSpace=wrap;html=1;align=center;" parent="1" vertex="1">
          <mxGeometry x="618" y="378" width="100" height="40" as="geometry" />
        </mxCell>
        <mxCell id="sa_86HW9bSHmPmkgzG64-13" value="has" style="shape=rhombus;perimeter=rhombusPerimeter;whiteSpace=wrap;html=1;align=center;fillColor=#cce5ff;strokeColor=#36393d;" parent="1" vertex="1">
          <mxGeometry x="805" y="378" width="40" height="40" as="geometry" />
        </mxCell>
        <mxCell id="sa_86HW9bSHmPmkgzG64-18" value="has" style="shape=rhombus;perimeter=rhombusPerimeter;whiteSpace=wrap;html=1;align=center;fillColor=#cce5ff;strokeColor=#36393d;" parent="1" vertex="1">
          <mxGeometry x="855" y="378" width="40" height="40" as="geometry" />
        </mxCell>
        <mxCell id="sa_86HW9bSHmPmkgzG64-22" value="" style="shape=link;html=1;rounded=0;endArrow=none;endFill=0;exitX=0.25;exitY=0;exitDx=0;exitDy=0;entryX=0.5;entryY=1;entryDx=0;entryDy=0;fillColor=#ffcc99;strokeColor=#B09500;" parent="1" source="ic1XsGLHBiBLJPpKoA1E-3" target="sa_86HW9bSHmPmkgzG64-13" edge="1">
          <mxGeometry relative="1" as="geometry">
            <mxPoint x="770" y="410" as="sourcePoint" />
            <mxPoint x="930" y="410" as="targetPoint" />
          </mxGeometry>
        </mxCell>
        <mxCell id="sa_86HW9bSHmPmkgzG64-23" value="N" style="resizable=0;html=1;align=right;verticalAlign=bottom;fontSize=20;labelBackgroundColor=default;" parent="sa_86HW9bSHmPmkgzG64-22" connectable="0" vertex="1">
          <mxGeometry x="1" relative="1" as="geometry">
            <mxPoint x="9" y="59" as="offset" />
          </mxGeometry>
        </mxCell>
        <mxCell id="sa_86HW9bSHmPmkgzG64-24" value="" style="shape=link;html=1;rounded=0;endArrow=none;endFill=0;exitX=0.75;exitY=0;exitDx=0;exitDy=0;entryX=0.5;entryY=1;entryDx=0;entryDy=0;fillColor=#ffcc99;strokeColor=#B09500;" parent="1" source="ic1XsGLHBiBLJPpKoA1E-3" target="sa_86HW9bSHmPmkgzG64-18" edge="1">
          <mxGeometry relative="1" as="geometry">
            <mxPoint x="835" y="530" as="sourcePoint" />
            <mxPoint x="940" y="420" as="targetPoint" />
          </mxGeometry>
        </mxCell>
        <mxCell id="sa_86HW9bSHmPmkgzG64-25" value="N" style="resizable=0;html=1;align=right;verticalAlign=bottom;fontSize=20;labelBackgroundColor=default;" parent="sa_86HW9bSHmPmkgzG64-24" connectable="0" vertex="1">
          <mxGeometry x="1" relative="1" as="geometry">
            <mxPoint x="7" y="59" as="offset" />
          </mxGeometry>
        </mxCell>
        <mxCell id="sa_86HW9bSHmPmkgzG64-26" value="" style="endArrow=none;html=1;rounded=0;fontFamily=Helvetica;fontSize=11;fontColor=default;align=center;strokeColor=#B09500;fillColor=#ffcc99;" parent="1" source="sa_86HW9bSHmPmkgzG64-8" target="sa_86HW9bSHmPmkgzG64-13" edge="1">
          <mxGeometry relative="1" as="geometry">
            <mxPoint x="770" y="428" as="sourcePoint" />
            <mxPoint x="930" y="428" as="targetPoint" />
          </mxGeometry>
        </mxCell>
        <mxCell id="sa_86HW9bSHmPmkgzG64-27" value="1" style="resizable=0;html=1;align=right;verticalAlign=bottom;fontSize=20;labelBackgroundColor=default;" parent="sa_86HW9bSHmPmkgzG64-26" connectable="0" vertex="1">
          <mxGeometry x="1" relative="1" as="geometry">
            <mxPoint x="-33" y="14" as="offset" />
          </mxGeometry>
        </mxCell>
        <mxCell id="sa_86HW9bSHmPmkgzG64-28" value="" style="endArrow=none;html=1;rounded=0;fontFamily=Helvetica;fontSize=11;fontColor=default;align=center;strokeColor=#B09500;fillColor=#ffcc99;" parent="1" source="sa_86HW9bSHmPmkgzG64-7" target="sa_86HW9bSHmPmkgzG64-18" edge="1">
          <mxGeometry relative="1" as="geometry">
            <mxPoint x="886" y="368" as="sourcePoint" />
            <mxPoint x="993" y="368" as="targetPoint" />
          </mxGeometry>
        </mxCell>
        <mxCell id="sa_86HW9bSHmPmkgzG64-29" value="1" style="resizable=0;html=1;align=right;verticalAlign=bottom;fontSize=20;labelBackgroundColor=default;" parent="sa_86HW9bSHmPmkgzG64-28" connectable="0" vertex="1">
          <mxGeometry x="1" relative="1" as="geometry">
            <mxPoint x="44" y="15" as="offset" />
          </mxGeometry>
        </mxCell>
        <mxCell id="KhHhmspxeSsIz6SWaP1c-3" value="Email" style="ellipse;whiteSpace=wrap;html=1;align=center;fontFamily=Helvetica;fontSize=12;fontColor=default;strokeColor=default;fillColor=default;" parent="1" vertex="1">
          <mxGeometry x="1134.0000000000002" y="100" width="56" height="40" as="geometry" />
        </mxCell>
        <mxCell id="KhHhmspxeSsIz6SWaP1c-6" value="Session_ID" style="ellipse;whiteSpace=wrap;html=1;align=center;rounded=0;" parent="1" vertex="1">
          <mxGeometry x="967.56" y="169" width="67.75" height="40" as="geometry" />
        </mxCell>
        <mxCell id="KhHhmspxeSsIz6SWaP1c-8" value="Password" style="ellipse;whiteSpace=wrap;html=1;align=center;rounded=0;" parent="1" vertex="1">
          <mxGeometry x="1056.13" y="120" width="67.75" height="40" as="geometry" />
        </mxCell>
        <mxCell id="puiFlrzKT8CEFiVwOP3T-1" value="&lt;p style=&quot;line-height: 90%;&quot;&gt;&lt;/p&gt;&lt;div style=&quot;line-height: 100%;&quot;&gt;&lt;b style=&quot;background-color: initial;&quot;&gt;&lt;br&gt;Produced&lt;/b&gt;&lt;/div&gt;&lt;font style=&quot;font-size: 14px;&quot;&gt;&lt;span style=&quot;font-size: 14px;&quot;&gt;&lt;b&gt;By&lt;/b&gt;&lt;/span&gt;&lt;/font&gt;&lt;p&gt;&lt;/p&gt;" style="shape=rhombus;double=1;perimeter=rhombusPerimeter;whiteSpace=wrap;html=1;align=center;fontFamily=Helvetica;fontSize=14;strokeColor=#10739e;fillColor=#b1ddf0;fillStyle=auto;" parent="1" vertex="1">
          <mxGeometry x="177" y="1103" width="90" height="60" as="geometry" />
        </mxCell>
        <mxCell id="VnVdwz_nQ0UYNyJ9cBvI-2" value="W" style="resizable=0;html=1;align=right;verticalAlign=bottom;fontSize=12;rounded=0;labelBackgroundColor=none;fontColor=default;" parent="1" connectable="0" vertex="1">
          <mxGeometry x="914" y="1133" as="geometry">
            <mxPoint x="-6" y="-3" as="offset" />
          </mxGeometry>
        </mxCell>
        <mxCell id="VnVdwz_nQ0UYNyJ9cBvI-12" value="" style="resizable=0;html=1;align=right;verticalAlign=bottom;rounded=0;shadow=0;sketch=0;fontSize=16;labelBackgroundColor=default;" parent="1" connectable="0" vertex="1">
          <mxGeometry x="98.00000000000023" y="366" as="geometry">
            <mxPoint x="717" y="-224" as="offset" />
          </mxGeometry>
        </mxCell>
        <mxCell id="VnVdwz_nQ0UYNyJ9cBvI-19" value="" style="endArrow=none;html=1;rounded=0;fontFamily=Helvetica;fontSize=14;fontColor=default;align=center;strokeColor=#B09500;entryX=0.35;entryY=-0.021;entryDx=0;entryDy=0;entryPerimeter=0;" parent="1" source="NMomimD1FpmeGMdiOsrc-110" target="7o3vYwH5cnDtXFb4_Unw-19" edge="1">
          <mxGeometry relative="1" as="geometry">
            <mxPoint x="1420" y="90" as="sourcePoint" />
            <mxPoint x="1403" y="199" as="targetPoint" />
          </mxGeometry>
        </mxCell>
        <mxCell id="VnVdwz_nQ0UYNyJ9cBvI-20" value="M" style="resizable=0;html=1;align=left;verticalAlign=bottom;fontSize=20;rounded=0;labelBackgroundColor=default;" parent="VnVdwz_nQ0UYNyJ9cBvI-19" connectable="0" vertex="1">
          <mxGeometry x="-1" relative="1" as="geometry">
            <mxPoint x="-9" y="29" as="offset" />
          </mxGeometry>
        </mxCell>
        <mxCell id="VnVdwz_nQ0UYNyJ9cBvI-28" value="W" style="resizable=0;html=1;align=right;verticalAlign=bottom;fontSize=16;rounded=0;labelBackgroundColor=none;fontColor=default;" parent="1" connectable="0" vertex="1">
          <mxGeometry x="914" y="292" as="geometry">
            <mxPoint x="-6" y="-3" as="offset" />
          </mxGeometry>
        </mxCell>
        <mxCell id="VnVdwz_nQ0UYNyJ9cBvI-29" value="&lt;font style=&quot;font-size: 14px;&quot;&gt;ReviewID&lt;/font&gt;" style="ellipse;whiteSpace=wrap;html=1;align=center;rounded=0;fontStyle=4" parent="1" vertex="1">
          <mxGeometry x="753.5699999999999" y="215.07" width="72.87" height="40" as="geometry" />
        </mxCell>
        <mxCell id="sxgCxHeBCdCzxEI4LQtO-6" style="edgeStyle=orthogonalEdgeStyle;rounded=0;orthogonalLoop=1;jettySize=auto;html=1;fontSize=16;endArrow=none;endFill=0;entryX=1;entryY=1;entryDx=0;entryDy=0;exitX=0;exitY=0.5;exitDx=0;exitDy=0;" parent="1" source="xjHABAh6YXt0YLcXBF75-1" edge="1">
          <mxGeometry relative="1" as="geometry">
            <mxPoint x="1466" y="360" as="targetPoint" />
            <mxPoint x="1490" y="430" as="sourcePoint" />
            <Array as="points">
              <mxPoint x="1483" y="419" />
              <mxPoint x="1483" y="360" />
            </Array>
          </mxGeometry>
        </mxCell>
        <mxCell id="xjHABAh6YXt0YLcXBF75-1" value="MovieID" style="ellipse;whiteSpace=wrap;html=1;align=center;fontStyle=4;fontSize=14;rounded=0;" parent="1" vertex="1">
          <mxGeometry x="1503" y="399" width="100" height="40" as="geometry" />
        </mxCell>
        <mxCell id="xjHABAh6YXt0YLcXBF75-5" value="Vote" style="ellipse;whiteSpace=wrap;html=1;align=center;fontSize=14;rounded=0;" parent="1" vertex="1">
          <mxGeometry x="762" y="130" width="56" height="40" as="geometry" />
        </mxCell>
        <mxCell id="6eaYVuAnAri0T7J8yDLd-13" value="" style="endArrow=none;html=1;rounded=0;exitX=1;exitY=0.5;exitDx=0;exitDy=0;entryX=0;entryY=0;entryDx=0;entryDy=0;strokeColor=#B09500;" parent="1" source="NMomimD1FpmeGMdiOsrc-109" target="NMomimD1FpmeGMdiOsrc-111" edge="1">
          <mxGeometry relative="1" as="geometry">
            <mxPoint x="470" y="110" as="sourcePoint" />
            <mxPoint x="630" y="110" as="targetPoint" />
          </mxGeometry>
        </mxCell>
        <mxCell id="6eaYVuAnAri0T7J8yDLd-15" value="N" style="resizable=0;html=1;align=right;verticalAlign=bottom;fontSize=20;rounded=0;labelBackgroundColor=default;" parent="1" connectable="0" vertex="1">
          <mxGeometry x="364.9969842257872" y="91.49968473929079" as="geometry" />
        </mxCell>
        <mxCell id="6eaYVuAnAri0T7J8yDLd-20" value="N" style="resizable=0;html=1;align=right;verticalAlign=bottom;fontSize=20;rounded=0;labelBackgroundColor=default;" parent="1" connectable="0" vertex="1">
          <mxGeometry x="858.9968542690723" y="155.99983470469874" as="geometry" />
        </mxCell>
        <mxCell id="6eaYVuAnAri0T7J8yDLd-21" value="&lt;b&gt;ReviewsM&lt;/b&gt;" style="shape=rhombus;perimeter=rhombusPerimeter;whiteSpace=wrap;html=1;align=center;fontFamily=Helvetica;fontSize=14;strokeColor=#10739e;fillColor=#b1ddf0;" parent="1" vertex="1">
          <mxGeometry x="1400" y="10" width="110" height="60" as="geometry" />
        </mxCell>
        <mxCell id="6eaYVuAnAri0T7J8yDLd-22" value="&lt;b&gt;ReviewsS&lt;/b&gt;" style="shape=rhombus;perimeter=rhombusPerimeter;whiteSpace=wrap;html=1;align=center;fontFamily=Helvetica;fontSize=14;strokeColor=#10739e;fillColor=#b1ddf0;" parent="1" vertex="1">
          <mxGeometry x="135" y="10" width="110" height="60" as="geometry" />
        </mxCell>
        <mxCell id="6eaYVuAnAri0T7J8yDLd-23" value="" style="endArrow=none;html=1;rounded=0;fontFamily=Helvetica;fontSize=14;fontColor=default;align=center;strokeColor=#B09500;entryX=0.082;entryY=-0.001;entryDx=0;entryDy=0;entryPerimeter=0;exitX=0.5;exitY=1;exitDx=0;exitDy=0;" parent="1" source="6eaYVuAnAri0T7J8yDLd-22" target="7o3vYwH5cnDtXFb4_Unw-54" edge="1">
          <mxGeometry relative="1" as="geometry">
            <mxPoint x="271.9197958439663" y="120.95625227852713" as="sourcePoint" />
            <mxPoint x="271.3599999999999" y="330.03999999999996" as="targetPoint" />
          </mxGeometry>
        </mxCell>
        <mxCell id="6eaYVuAnAri0T7J8yDLd-24" value="M" style="resizable=0;html=1;align=left;verticalAlign=bottom;fontSize=20;rounded=0;labelBackgroundColor=default;" parent="6eaYVuAnAri0T7J8yDLd-23" connectable="0" vertex="1">
          <mxGeometry x="-1" relative="1" as="geometry">
            <mxPoint x="-9" y="30" as="offset" />
          </mxGeometry>
        </mxCell>
        <mxCell id="6eaYVuAnAri0T7J8yDLd-26" value="" style="shape=link;html=1;rounded=0;fontFamily=Helvetica;fontSize=13;fontColor=default;align=center;strokeColor=#B09500;" parent="1" source="6eaYVuAnAri0T7J8yDLd-22" target="ic1XsGLHBiBLJPpKoA1E-127" edge="1">
          <mxGeometry relative="1" as="geometry">
            <mxPoint x="410" y="40" as="sourcePoint" />
            <mxPoint x="780" y="40" as="targetPoint" />
          </mxGeometry>
        </mxCell>
        <mxCell id="6eaYVuAnAri0T7J8yDLd-27" value="N" style="resizable=0;html=1;align=right;verticalAlign=bottom;labelBackgroundColor=default;fontSize=20;" parent="6eaYVuAnAri0T7J8yDLd-26" connectable="0" vertex="1">
          <mxGeometry x="1" relative="1" as="geometry">
            <mxPoint x="-435" y="11" as="offset" />
          </mxGeometry>
        </mxCell>
        <mxCell id="6eaYVuAnAri0T7J8yDLd-28" value="" style="shape=link;html=1;rounded=0;fontFamily=Helvetica;fontSize=13;fontColor=default;align=center;strokeColor=#B09500;" parent="1" source="ic1XsGLHBiBLJPpKoA1E-127" target="6eaYVuAnAri0T7J8yDLd-21" edge="1">
          <mxGeometry relative="1" as="geometry">
            <mxPoint x="406.38" y="9.43" as="sourcePoint" />
            <mxPoint x="961.38" y="9.43" as="targetPoint" />
          </mxGeometry>
        </mxCell>
        <mxCell id="6eaYVuAnAri0T7J8yDLd-29" value="N" style="resizable=0;html=1;align=right;verticalAlign=bottom;labelBackgroundColor=default;fontSize=20;" parent="6eaYVuAnAri0T7J8yDLd-28" connectable="0" vertex="1">
          <mxGeometry x="1" relative="1" as="geometry">
            <mxPoint x="-193" y="11" as="offset" />
          </mxGeometry>
        </mxCell>
        <mxCell id="6eaYVuAnAri0T7J8yDLd-30" value="" style="endArrow=none;html=1;rounded=0;fontFamily=Helvetica;fontSize=14;fontColor=default;align=center;strokeColor=#B09500;exitX=0.5;exitY=1;exitDx=0;exitDy=0;" parent="1" source="6eaYVuAnAri0T7J8yDLd-21" edge="1">
          <mxGeometry relative="1" as="geometry">
            <mxPoint x="1200.1599999999999" y="10" as="sourcePoint" />
            <mxPoint x="1455" y="320" as="targetPoint" />
          </mxGeometry>
        </mxCell>
        <mxCell id="6eaYVuAnAri0T7J8yDLd-31" value="M" style="resizable=0;html=1;align=left;verticalAlign=bottom;fontSize=23;rounded=0;labelBackgroundColor=default;" parent="6eaYVuAnAri0T7J8yDLd-30" connectable="0" vertex="1">
          <mxGeometry x="-1" relative="1" as="geometry">
            <mxPoint x="-9" y="70" as="offset" />
          </mxGeometry>
        </mxCell>
        <mxCell id="6eaYVuAnAri0T7J8yDLd-34" value="URL" style="ellipse;whiteSpace=wrap;html=1;align=center;fontFamily=Helvetica;fontSize=14;fontColor=default;strokeColor=default;fillColor=default;" parent="1" vertex="1">
          <mxGeometry x="698" y="10" width="80" height="20" as="geometry" />
        </mxCell>
        <mxCell id="nW7b6mAZJRJHVCDWe1-h-6" value="&lt;font style=&quot;font-size: 10px;&quot;&gt;GoldenGlobeTitleID&lt;/font&gt;" style="ellipse;whiteSpace=wrap;html=1;align=center;fontStyle=4;labelBackgroundColor=default;" parent="1" vertex="1">
          <mxGeometry x="1074" y="378" width="99" height="40" as="geometry" />
        </mxCell>
        <mxCell id="nW7b6mAZJRJHVCDWe1-h-10" style="edgeStyle=orthogonalEdgeStyle;rounded=0;orthogonalLoop=1;jettySize=auto;html=1;exitX=0;exitY=0.5;exitDx=0;exitDy=0;entryX=0.5;entryY=1;entryDx=0;entryDy=0;endArrow=none;endFill=0;" parent="1" source="nW7b6mAZJRJHVCDWe1-h-9" target="sa_86HW9bSHmPmkgzG64-7" edge="1">
          <mxGeometry relative="1" as="geometry" />
        </mxCell>
        <mxCell id="nW7b6mAZJRJHVCDWe1-h-9" value="GoldenGlobeTitles" style="ellipse;whiteSpace=wrap;html=1;align=center;" parent="1" vertex="1">
          <mxGeometry x="1073" y="439" width="100" height="40" as="geometry" />
        </mxCell>
        <mxCell id="nW7b6mAZJRJHVCDWe1-h-11" value="Academy Aw.&lt;br style=&quot;border-color: var(--border-color); background-color: rgb(251, 251, 251);&quot;&gt;&lt;span style=&quot;background-color: rgb(251, 251, 251);&quot;&gt;TitlesID&lt;/span&gt;" style="ellipse;whiteSpace=wrap;html=1;align=center;fontStyle=4;labelBackgroundColor=default;" parent="1" vertex="1">
          <mxGeometry x="508.88" y="378" width="99" height="40" as="geometry" />
        </mxCell>
        <mxCell id="sxgCxHeBCdCzxEI4LQtO-2" style="edgeStyle=orthogonalEdgeStyle;rounded=0;orthogonalLoop=1;jettySize=auto;html=1;exitX=0;exitY=0.5;exitDx=0;exitDy=0;entryX=1;entryY=1;entryDx=0;entryDy=0;dashed=1;fontSize=24;endArrow=none;endFill=0;" parent="1" source="sxgCxHeBCdCzxEI4LQtO-1" target="7o3vYwH5cnDtXFb4_Unw-19" edge="1">
          <mxGeometry relative="1" as="geometry">
            <mxPoint x="1505.9999999999895" y="979" as="sourcePoint" />
            <mxPoint x="1466" y="360" as="targetPoint" />
            <Array as="points">
              <mxPoint x="1483" y="979" />
              <mxPoint x="1483" y="360" />
            </Array>
          </mxGeometry>
        </mxCell>
        <mxCell id="sxgCxHeBCdCzxEI4LQtO-1" value="PopularityDiff" style="ellipse;whiteSpace=wrap;html=1;align=center;dashed=1;rounded=0;" parent="1" vertex="1">
          <mxGeometry x="1503" y="959" width="100" height="40" as="geometry" />
        </mxCell>
        <mxCell id="sxgCxHeBCdCzxEI4LQtO-46" style="edgeStyle=orthogonalEdgeStyle;rounded=0;orthogonalLoop=1;jettySize=auto;html=1;exitX=1;exitY=0.5;exitDx=0;exitDy=0;entryX=0;entryY=1;entryDx=0;entryDy=0;dashed=1;fontSize=16;fontColor=#000000;endArrow=none;endFill=0;" parent="1" source="sxgCxHeBCdCzxEI4LQtO-3" target="7o3vYwH5cnDtXFb4_Unw-54" edge="1">
          <mxGeometry relative="1" as="geometry">
            <Array as="points">
              <mxPoint x="160" y="1060" />
              <mxPoint x="160" y="360" />
            </Array>
          </mxGeometry>
        </mxCell>
        <mxCell id="sxgCxHeBCdCzxEI4LQtO-3" value="PopularityDiff" style="ellipse;whiteSpace=wrap;html=1;align=center;dashed=1;rounded=0;" parent="1" vertex="1">
          <mxGeometry x="40" y="1040" width="100" height="40" as="geometry" />
        </mxCell>
        <mxCell id="sxgCxHeBCdCzxEI4LQtO-27" style="edgeStyle=none;rounded=0;orthogonalLoop=1;jettySize=auto;html=1;exitX=0;exitY=1;exitDx=0;exitDy=0;fontSize=16;fontColor=#000000;endArrow=none;endFill=0;entryX=1;entryY=0.5;entryDx=0;entryDy=0;" parent="1" source="sxgCxHeBCdCzxEI4LQtO-7" target="sxgCxHeBCdCzxEI4LQtO-8" edge="1">
          <mxGeometry relative="1" as="geometry">
            <mxPoint x="820" y="354.8571428571429" as="targetPoint" />
          </mxGeometry>
        </mxCell>
        <mxCell id="sxgCxHeBCdCzxEI4LQtO-28" style="edgeStyle=none;rounded=0;orthogonalLoop=1;jettySize=auto;html=1;exitX=1;exitY=1;exitDx=0;exitDy=0;entryX=0;entryY=0.5;entryDx=0;entryDy=0;fontSize=16;fontColor=#000000;endArrow=none;endFill=0;" parent="1" source="sxgCxHeBCdCzxEI4LQtO-7" target="sxgCxHeBCdCzxEI4LQtO-9" edge="1">
          <mxGeometry relative="1" as="geometry" />
        </mxCell>
        <mxCell id="sxgCxHeBCdCzxEI4LQtO-7" value="&lt;font size=&quot;1&quot;&gt;Genre&lt;/font&gt;" style="rounded=0;whiteSpace=wrap;html=1;labelBackgroundColor=default;fontSize=16;" parent="1" vertex="1">
          <mxGeometry x="831" y="325" width="40" height="30" as="geometry" />
        </mxCell>
        <mxCell id="sxgCxHeBCdCzxEI4LQtO-8" value="&lt;font style=&quot;font-size: 12px;&quot;&gt;GenreID&lt;/font&gt;" style="ellipse;whiteSpace=wrap;html=1;align=center;fontStyle=4;fontSize=14;rounded=0;" parent="1" vertex="1">
          <mxGeometry x="745" y="342.5" width="60" height="25" as="geometry" />
        </mxCell>
        <mxCell id="sxgCxHeBCdCzxEI4LQtO-9" value="GenreTitle" style="ellipse;whiteSpace=wrap;html=1;align=center;rounded=0;" parent="1" vertex="1">
          <mxGeometry x="895" y="342.5" width="60" height="25" as="geometry" />
        </mxCell>
        <mxCell id="sxgCxHeBCdCzxEI4LQtO-19" value="" style="shape=link;html=1;rounded=0;fontSize=12;endArrow=none;endFill=0;entryX=1;entryY=0.5;entryDx=0;entryDy=0;exitX=0;exitY=0.5;exitDx=0;exitDy=0;width=10.869565217391305;fillColor=#ffcc99;strokeColor=#B09500;" parent="1" source="uJXrZsIrfG91avE3QK3n-1" target="7o3vYwH5cnDtXFb4_Unw-54" edge="1">
          <mxGeometry relative="1" as="geometry">
            <mxPoint x="428.88" y="340" as="sourcePoint" />
            <mxPoint x="318.5" y="339.57" as="targetPoint" />
          </mxGeometry>
        </mxCell>
        <mxCell id="sxgCxHeBCdCzxEI4LQtO-20" value="N" style="resizable=0;html=1;align=right;verticalAlign=bottom;labelBackgroundColor=default;fontSize=20;" parent="sxgCxHeBCdCzxEI4LQtO-19" connectable="0" vertex="1">
          <mxGeometry x="1" relative="1" as="geometry">
            <mxPoint x="54" y="11" as="offset" />
          </mxGeometry>
        </mxCell>
        <mxCell id="sxgCxHeBCdCzxEI4LQtO-21" value="" style="shape=link;html=1;rounded=0;fontSize=12;endArrow=none;endFill=0;entryX=1;entryY=0.5;entryDx=0;entryDy=0;exitX=0;exitY=0.5;exitDx=0;exitDy=0;width=10.869565217391305;fillColor=#ffcc99;strokeColor=#B09500;" parent="1" source="7o3vYwH5cnDtXFb4_Unw-19" target="uJXrZsIrfG91avE3QK3n-2" edge="1">
          <mxGeometry relative="1" as="geometry">
            <mxPoint x="1303.88" y="370" as="sourcePoint" />
            <mxPoint x="1235" y="338.5" as="targetPoint" />
          </mxGeometry>
        </mxCell>
        <mxCell id="sxgCxHeBCdCzxEI4LQtO-22" value="N" style="resizable=0;html=1;align=right;verticalAlign=bottom;labelBackgroundColor=default;fontSize=20;" parent="sxgCxHeBCdCzxEI4LQtO-21" connectable="0" vertex="1">
          <mxGeometry x="1" relative="1" as="geometry">
            <mxPoint x="85" y="11" as="offset" />
          </mxGeometry>
        </mxCell>
        <mxCell id="sxgCxHeBCdCzxEI4LQtO-23" value="" style="endArrow=none;html=1;rounded=0;fontSize=12;fontColor=#000000;exitX=1;exitY=0.5;exitDx=0;exitDy=0;entryX=0;entryY=0.5;entryDx=0;entryDy=0;fillColor=#ffcc99;strokeColor=#B09500;" parent="1" source="uJXrZsIrfG91avE3QK3n-1" target="sxgCxHeBCdCzxEI4LQtO-7" edge="1">
          <mxGeometry relative="1" as="geometry">
            <mxPoint x="508.88" y="340" as="sourcePoint" />
            <mxPoint x="706.64" y="339.64" as="targetPoint" />
          </mxGeometry>
        </mxCell>
        <mxCell id="sxgCxHeBCdCzxEI4LQtO-24" value="1" style="resizable=0;html=1;align=right;verticalAlign=bottom;labelBackgroundColor=default;fontSize=20;fontColor=#000000;fillColor=none;" parent="sxgCxHeBCdCzxEI4LQtO-23" connectable="0" vertex="1">
          <mxGeometry x="1" relative="1" as="geometry">
            <mxPoint x="-203" y="10" as="offset" />
          </mxGeometry>
        </mxCell>
        <mxCell id="sxgCxHeBCdCzxEI4LQtO-25" value="" style="endArrow=none;html=1;rounded=0;fontSize=12;fontColor=#000000;exitX=1;exitY=0.5;exitDx=0;exitDy=0;entryX=0;entryY=0.5;entryDx=0;entryDy=0;fillColor=#ffcc99;strokeColor=#B09500;" parent="1" source="sxgCxHeBCdCzxEI4LQtO-7" target="uJXrZsIrfG91avE3QK3n-2" edge="1">
          <mxGeometry relative="1" as="geometry">
            <mxPoint x="845.0000000000001" y="368.4999999999999" as="sourcePoint" />
            <mxPoint x="1155" y="338.5" as="targetPoint" />
          </mxGeometry>
        </mxCell>
        <mxCell id="sxgCxHeBCdCzxEI4LQtO-26" value="1" style="resizable=0;html=1;align=right;verticalAlign=bottom;labelBackgroundColor=default;fontSize=20;fontColor=#000000;fillColor=none;" parent="sxgCxHeBCdCzxEI4LQtO-25" connectable="0" vertex="1">
          <mxGeometry x="1" relative="1" as="geometry">
            <mxPoint x="-96" y="11" as="offset" />
          </mxGeometry>
        </mxCell>
        <mxCell id="sxgCxHeBCdCzxEI4LQtO-31" value="Genre1" style="ellipse;whiteSpace=wrap;html=1;align=center;rounded=0;" parent="1" vertex="1">
          <mxGeometry x="1528" y="295" width="50" height="25" as="geometry" />
        </mxCell>
        <mxCell id="sxgCxHeBCdCzxEI4LQtO-35" style="edgeStyle=orthogonalEdgeStyle;rounded=0;orthogonalLoop=1;jettySize=auto;html=1;exitX=0;exitY=0.5;exitDx=0;exitDy=0;entryX=1;entryY=0.5;entryDx=0;entryDy=0;fontSize=16;fontColor=#000000;endArrow=none;endFill=0;" parent="1" source="sxgCxHeBCdCzxEI4LQtO-32" target="7o3vYwH5cnDtXFb4_Unw-19" edge="1">
          <mxGeometry relative="1" as="geometry" />
        </mxCell>
        <mxCell id="sxgCxHeBCdCzxEI4LQtO-32" value="Genre2" style="ellipse;whiteSpace=wrap;html=1;align=center;rounded=0;" parent="1" vertex="1">
          <mxGeometry x="1528" y="327.5" width="50" height="25" as="geometry" />
        </mxCell>
        <mxCell id="sxgCxHeBCdCzxEI4LQtO-36" style="edgeStyle=orthogonalEdgeStyle;rounded=0;orthogonalLoop=1;jettySize=auto;html=1;exitX=0;exitY=0.5;exitDx=0;exitDy=0;entryX=1;entryY=0.5;entryDx=0;entryDy=0;fontSize=16;fontColor=#000000;endArrow=none;endFill=0;" parent="1" source="sxgCxHeBCdCzxEI4LQtO-33" target="7o3vYwH5cnDtXFb4_Unw-19" edge="1">
          <mxGeometry relative="1" as="geometry">
            <Array as="points">
              <mxPoint x="1510" y="373" />
              <mxPoint x="1510" y="340" />
            </Array>
          </mxGeometry>
        </mxCell>
        <mxCell id="sxgCxHeBCdCzxEI4LQtO-33" value="Genre3" style="ellipse;whiteSpace=wrap;html=1;align=center;rounded=0;" parent="1" vertex="1">
          <mxGeometry x="1528" y="360" width="50" height="25" as="geometry" />
        </mxCell>
        <mxCell id="sxgCxHeBCdCzxEI4LQtO-37" value="Genre1" style="ellipse;whiteSpace=wrap;html=1;align=center;rounded=0;" parent="1" vertex="1">
          <mxGeometry x="64.99999999999994" y="295" width="50" height="25" as="geometry" />
        </mxCell>
        <mxCell id="sxgCxHeBCdCzxEI4LQtO-55" style="edgeStyle=orthogonalEdgeStyle;rounded=0;orthogonalLoop=1;jettySize=auto;html=1;exitX=1;exitY=0.5;exitDx=0;exitDy=0;entryX=0;entryY=0.5;entryDx=0;entryDy=0;fontSize=16;fontColor=#000000;endArrow=none;endFill=0;" parent="1" source="sxgCxHeBCdCzxEI4LQtO-38" target="7o3vYwH5cnDtXFb4_Unw-54" edge="1">
          <mxGeometry relative="1" as="geometry" />
        </mxCell>
        <mxCell id="sxgCxHeBCdCzxEI4LQtO-38" value="Genre2" style="ellipse;whiteSpace=wrap;html=1;align=center;rounded=0;" parent="1" vertex="1">
          <mxGeometry x="64.99999999999994" y="327.5" width="50" height="25" as="geometry" />
        </mxCell>
        <mxCell id="sxgCxHeBCdCzxEI4LQtO-56" style="edgeStyle=orthogonalEdgeStyle;rounded=0;orthogonalLoop=1;jettySize=auto;html=1;exitX=1;exitY=0.5;exitDx=0;exitDy=0;entryX=0;entryY=0.5;entryDx=0;entryDy=0;fontSize=16;fontColor=#000000;endArrow=none;endFill=0;" parent="1" source="sxgCxHeBCdCzxEI4LQtO-39" target="7o3vYwH5cnDtXFb4_Unw-54" edge="1">
          <mxGeometry relative="1" as="geometry">
            <Array as="points">
              <mxPoint x="130" y="373" />
              <mxPoint x="130" y="340" />
            </Array>
          </mxGeometry>
        </mxCell>
        <mxCell id="sxgCxHeBCdCzxEI4LQtO-39" value="Genre3" style="ellipse;whiteSpace=wrap;html=1;align=center;rounded=0;" parent="1" vertex="1">
          <mxGeometry x="64.99999999999994" y="360" width="50" height="25" as="geometry" />
        </mxCell>
        <mxCell id="X0ftvepNIZ-Nx8N8yRDw-2" style="rounded=0;orthogonalLoop=1;jettySize=auto;html=1;exitX=0;exitY=0;exitDx=0;exitDy=0;endArrow=none;endFill=0;entryX=1;entryY=1;entryDx=0;entryDy=0;edgeStyle=orthogonalEdgeStyle;" parent="1" source="X0ftvepNIZ-Nx8N8yRDw-1" target="NMomimD1FpmeGMdiOsrc-109" edge="1">
          <mxGeometry relative="1" as="geometry">
            <mxPoint x="320" y="95.71428571428572" as="targetPoint" />
            <Array as="points">
              <mxPoint x="330" y="106" />
              <mxPoint x="330" y="96" />
            </Array>
          </mxGeometry>
        </mxCell>
        <mxCell id="X0ftvepNIZ-Nx8N8yRDw-1" value="&lt;font style=&quot;font-size: 11px;&quot;&gt;VoteDate&lt;/font&gt;" style="ellipse;whiteSpace=wrap;html=1;align=center;fontSize=14;rounded=0;" parent="1" vertex="1">
          <mxGeometry x="374" y="90" width="50" height="40" as="geometry" />
        </mxCell>
        <mxCell id="X0ftvepNIZ-Nx8N8yRDw-7" style="edgeStyle=orthogonalEdgeStyle;rounded=0;orthogonalLoop=1;jettySize=auto;html=1;exitX=0.5;exitY=0;exitDx=0;exitDy=0;entryX=0;entryY=1;entryDx=0;entryDy=0;endArrow=none;endFill=0;" parent="1" source="X0ftvepNIZ-Nx8N8yRDw-4" target="NMomimD1FpmeGMdiOsrc-110" edge="1">
          <mxGeometry relative="1" as="geometry">
            <Array as="points">
              <mxPoint x="1310" y="96" />
            </Array>
          </mxGeometry>
        </mxCell>
        <mxCell id="X0ftvepNIZ-Nx8N8yRDw-4" value="Vote" style="ellipse;whiteSpace=wrap;html=1;align=center;fontSize=14;rounded=0;" parent="1" vertex="1">
          <mxGeometry x="1285" y="113" width="50" height="40" as="geometry" />
        </mxCell>
        <mxCell id="X0ftvepNIZ-Nx8N8yRDw-5" value="&lt;font style=&quot;font-size: 11px;&quot;&gt;VoteDate&lt;/font&gt;" style="ellipse;whiteSpace=wrap;html=1;align=center;fontSize=14;rounded=0;" parent="1" vertex="1">
          <mxGeometry x="1216" y="87" width="50" height="40" as="geometry" />
        </mxCell>
        <mxCell id="uJXrZsIrfG91avE3QK3n-1" value="has" style="shape=rhombus;perimeter=rhombusPerimeter;whiteSpace=wrap;html=1;align=center;fillColor=#b1ddf0;strokeColor=#10739e;" parent="1" vertex="1">
          <mxGeometry x="435.13" y="310" width="80" height="60" as="geometry" />
        </mxCell>
        <mxCell id="uJXrZsIrfG91avE3QK3n-2" value="has" style="shape=rhombus;perimeter=rhombusPerimeter;whiteSpace=wrap;html=1;align=center;fillColor=#b1ddf0;strokeColor=#10739e;" parent="1" vertex="1">
          <mxGeometry x="1150" y="310" width="80" height="60" as="geometry" />
        </mxCell>
        <mxCell id="uJXrZsIrfG91avE3QK3n-3" value="ChanceOf" style="shape=rhombus;perimeter=rhombusPerimeter;whiteSpace=wrap;html=1;align=center;fillColor=#cce5ff;strokeColor=#36393d;" parent="1" vertex="1">
          <mxGeometry x="1092" y="500" width="120" height="60" as="geometry" />
        </mxCell>
        <mxCell id="uJXrZsIrfG91avE3QK3n-4" value="ChanceOf" style="shape=rhombus;perimeter=rhombusPerimeter;whiteSpace=wrap;html=1;align=center;fillColor=#b1ddf0;strokeColor=#10739e;" parent="1" vertex="1">
          <mxGeometry x="460" y="500" width="120" height="60" as="geometry" />
        </mxCell>
        <mxCell id="uJXrZsIrfG91avE3QK3n-5" value="has" style="shape=rhombus;perimeter=rhombusPerimeter;whiteSpace=wrap;html=1;align=center;fillColor=#cce5ff;strokeColor=#36393d;" parent="1" vertex="1">
          <mxGeometry x="676" y="698" width="60" height="40" as="geometry" />
        </mxCell>
        <mxCell id="_eZYOegV9LPJx3twl3Cs-1" value="Academy Aw. Titles" style="ellipse;whiteSpace=wrap;html=1;align=center;" vertex="1" parent="1">
          <mxGeometry x="509" y="440" width="100" height="40" as="geometry" />
        </mxCell>
      </root>
    </mxGraphModel>
  </diagram>
</mxfile>
